<svg width="157" height="119" viewBox="0 0 157 119" fill="none" xmlns="http://www.w3.org/2000/svg">
<g filter="url(#filter0_d)">
<rect x="4" width="149" height="111" rx="10" fill="#C4C4C4"/>
</g>
<path d="M4 10C4 4.47715 8.47715 0 14 0H41.75V111H14C8.47715 111 4 106.523 4 101V10Z" fill="#FFCC66"/>
<rect x="41" width="37.75" height="111" fill="#8DD7BF"/>
<rect x="78" width="37.75" height="111" fill="#FF96C5"/>
<path d="M115 0H142.75C148.273 0 152.75 4.47715 152.75 10V101C152.75 106.523 148.273 111 142.75 111H115V0Z" fill="#E77577"/>
<path d="M33.2285 62V49.9141H37.3706C38.7375 49.9141 39.7778 50.188 40.4917 50.7358C41.2056 51.2837 41.5625 52.0999 41.5625 53.1846C41.5625 53.738 41.4131 54.236 41.1143 54.6787C40.8154 55.1214 40.3783 55.4645 39.8027 55.708C40.4557 55.8851 40.9593 56.2199 41.3135 56.7124C41.6732 57.1994 41.853 57.786 41.853 58.4722C41.853 59.6066 41.4878 60.4782 40.7573 61.0869C40.0324 61.6956 38.992 62 37.6362 62H33.2285ZM35.3286 56.5464V60.3232H37.6611C38.3197 60.3232 38.8343 60.16 39.2051 59.8335C39.5758 59.507 39.7612 59.0532 39.7612 58.4722C39.7612 57.216 39.1193 56.5741 37.8354 56.5464H35.3286ZM35.3286 55.0024H37.3872C38.0402 55.0024 38.5493 54.8558 38.9146 54.5625C39.2853 54.2637 39.4707 53.8431 39.4707 53.3008C39.4707 52.7031 39.2992 52.2715 38.9561 52.0059C38.6185 51.7402 38.09 51.6074 37.3706 51.6074H35.3286V55.0024ZM48.4604 54.8613C48.1948 54.8171 47.9209 54.7949 47.6387 54.7949C46.7145 54.7949 46.092 55.1491 45.771 55.8574V62H43.7539V53.0186H45.6797L45.7295 54.0229C46.2165 53.2427 46.8916 52.8525 47.7549 52.8525C48.0426 52.8525 48.2806 52.8913 48.4688 52.9688L48.4604 54.8613ZM51.8804 62H49.8633V53.0186H51.8804V62ZM49.7388 50.686C49.7388 50.3761 49.8356 50.1188 50.0293 49.9141C50.2285 49.7093 50.5107 49.6069 50.876 49.6069C51.2412 49.6069 51.5234 49.7093 51.7227 49.9141C51.9219 50.1188 52.0215 50.3761 52.0215 50.686C52.0215 50.9904 51.9219 51.245 51.7227 51.4497C51.5234 51.6489 51.2412 51.7485 50.876 51.7485C50.5107 51.7485 50.2285 51.6489 50.0293 51.4497C49.8356 51.245 49.7388 50.9904 49.7388 50.686ZM53.7314 57.4429C53.7314 56.0483 54.0579 54.936 54.7109 54.106C55.3695 53.2703 56.241 52.8525 57.3257 52.8525C58.3494 52.8525 59.1546 53.2095 59.7412 53.9233L59.8325 53.0186H61.6504V61.7261C61.6504 62.9048 61.2824 63.8345 60.5464 64.5151C59.8159 65.1958 58.8281 65.5361 57.583 65.5361C56.9245 65.5361 56.2798 65.3978 55.6489 65.1211C55.0236 64.8499 54.5477 64.493 54.2212 64.0503L55.1758 62.8384C55.7956 63.5744 56.5592 63.9424 57.4668 63.9424C58.1364 63.9424 58.6649 63.7598 59.0522 63.3945C59.4396 63.0348 59.6333 62.5036 59.6333 61.8008V61.1948C59.0522 61.8423 58.2775 62.166 57.3091 62.166C56.2576 62.166 55.3971 61.7482 54.7275 60.9126C54.0635 60.077 53.7314 58.9204 53.7314 57.4429ZM55.7402 57.6172C55.7402 58.5192 55.9229 59.2303 56.2881 59.7505C56.6589 60.2651 57.1707 60.5225 57.8237 60.5225C58.6372 60.5225 59.2404 60.1738 59.6333 59.4766V55.5254C59.2515 54.8447 58.6538 54.5044 57.8403 54.5044C57.1763 54.5044 56.6589 54.7673 56.2881 55.293C55.9229 55.8187 55.7402 56.5934 55.7402 57.6172ZM65.7178 53.998C66.3763 53.2344 67.2091 52.8525 68.2163 52.8525C70.131 52.8525 71.1022 53.9455 71.1299 56.1313V62H69.1128V56.2061C69.1128 55.5863 68.9772 55.1491 68.7061 54.8945C68.4404 54.6344 68.0475 54.5044 67.5273 54.5044C66.7194 54.5044 66.1162 54.8641 65.7178 55.5835V62H63.7007V49.25H65.7178V53.998ZM75.7036 50.8354V53.0186H77.2891V54.5127H75.7036V59.5264C75.7036 59.8695 75.77 60.1185 75.9028 60.2734C76.0412 60.4229 76.2847 60.4976 76.6333 60.4976C76.8657 60.4976 77.1009 60.4699 77.3389 60.4146V61.9751C76.8796 62.1024 76.4368 62.166 76.0107 62.166C74.4613 62.166 73.6865 61.311 73.6865 59.6011V54.5127H72.209V53.0186H73.6865V50.8354H75.7036ZM85.5981 50.8354V53.0186H87.1836V54.5127H85.5981V59.5264C85.5981 59.8695 85.6646 60.1185 85.7974 60.2734C85.9357 60.4229 86.1792 60.4976 86.5278 60.4976C86.7603 60.4976 86.9954 60.4699 87.2334 60.4146V61.9751C86.7741 62.1024 86.3314 62.166 85.9053 62.166C84.3558 62.166 83.5811 61.311 83.5811 59.6011V54.5127H82.1035V53.0186H83.5811V50.8354H85.5981ZM88.105 57.4263C88.105 56.5464 88.2793 55.755 88.6279 55.0522C88.9766 54.3439 89.4663 53.8016 90.0972 53.4253C90.728 53.0435 91.453 52.8525 92.272 52.8525C93.4839 52.8525 94.4661 53.2427 95.2188 54.0229C95.9769 54.8032 96.3864 55.8381 96.4473 57.1274L96.4556 57.6006C96.4556 58.486 96.284 59.2773 95.9409 59.9746C95.6034 60.6719 95.1164 61.2114 94.48 61.5933C93.8491 61.9751 93.1187 62.166 92.2886 62.166C91.0213 62.166 90.0059 61.7454 89.2422 60.9043C88.484 60.0576 88.105 58.9315 88.105 57.5259V57.4263ZM90.1221 57.6006C90.1221 58.5247 90.313 59.2497 90.6948 59.7754C91.0767 60.2956 91.6079 60.5557 92.2886 60.5557C92.9692 60.5557 93.4977 60.29 93.874 59.7588C94.2559 59.2275 94.4468 58.45 94.4468 57.4263C94.4468 56.5187 94.2503 55.7993 93.8574 55.2681C93.4701 54.7368 92.9416 54.4712 92.272 54.4712C91.6134 54.4712 91.0905 54.734 90.7031 55.2598C90.3158 55.7799 90.1221 56.5602 90.1221 57.6006ZM100.033 53.0186L100.091 54.0562C100.755 53.2537 101.627 52.8525 102.706 52.8525C104.576 52.8525 105.528 53.9233 105.562 56.0649V62H103.544V56.1812C103.544 55.6112 103.42 55.1906 103.171 54.9194C102.927 54.6427 102.526 54.5044 101.967 54.5044C101.154 54.5044 100.548 54.8724 100.149 55.6084V62H98.1323V53.0186H100.033ZM111.58 62.166C110.301 62.166 109.264 61.7648 108.467 60.9624C107.675 60.1545 107.28 59.0809 107.28 57.7417V57.4927C107.28 56.5962 107.451 55.7965 107.794 55.0938C108.143 54.3854 108.63 53.8348 109.255 53.4419C109.881 53.049 110.578 52.8525 111.347 52.8525C112.57 52.8525 113.514 53.2427 114.178 54.0229C114.847 54.8032 115.182 55.9072 115.182 57.335V58.1484H109.313C109.374 58.89 109.621 59.4766 110.052 59.9082C110.489 60.3398 111.037 60.5557 111.696 60.5557C112.62 60.5557 113.373 60.1821 113.954 59.4351L115.041 60.4727C114.681 61.0094 114.2 61.4272 113.597 61.7261C112.999 62.0194 112.327 62.166 111.58 62.166ZM111.339 54.4712C110.785 54.4712 110.337 54.6649 109.994 55.0522C109.657 55.4396 109.441 55.9792 109.347 56.6709H113.19V56.5215C113.146 55.8464 112.966 55.3372 112.65 54.9941C112.335 54.6455 111.898 54.4712 111.339 54.4712ZM121.79 59.5596C121.79 59.1999 121.64 58.9259 121.341 58.7378C121.048 58.5496 120.558 58.3836 119.872 58.2397C119.186 58.0959 118.613 57.9132 118.154 57.6919C117.147 57.2049 116.643 56.4993 116.643 55.5752C116.643 54.8005 116.97 54.153 117.623 53.6328C118.276 53.1126 119.106 52.8525 120.113 52.8525C121.186 52.8525 122.052 53.1182 122.711 53.6494C123.375 54.1807 123.707 54.8696 123.707 55.7163H121.69C121.69 55.3289 121.546 55.008 121.258 54.7534C120.971 54.4933 120.589 54.3633 120.113 54.3633C119.67 54.3633 119.308 54.4657 119.025 54.6704C118.749 54.8752 118.61 55.1491 118.61 55.4922C118.61 55.8021 118.74 56.0428 119 56.2144C119.261 56.3859 119.786 56.5602 120.578 56.7373C121.369 56.9089 121.989 57.1164 122.437 57.3599C122.891 57.5978 123.226 57.8856 123.441 58.2231C123.663 58.5607 123.773 58.9702 123.773 59.4517C123.773 60.2596 123.439 60.9154 122.769 61.4189C122.099 61.917 121.222 62.166 120.138 62.166C119.402 62.166 118.746 62.0332 118.17 61.7676C117.595 61.502 117.147 61.1367 116.826 60.6719C116.505 60.207 116.344 59.7062 116.344 59.1694H118.303C118.331 59.6453 118.511 60.0133 118.843 60.2734C119.175 60.528 119.615 60.6553 120.163 60.6553C120.694 60.6553 121.098 60.5557 121.375 60.3564C121.651 60.1517 121.79 59.8861 121.79 59.5596Z" fill="white"/>
<defs>
<filter id="filter0_d" x="0" y="0" width="157" height="119" filterUnits="userSpaceOnUse" color-interpolation-filters="sRGB">
<feFlood flood-opacity="0" result="BackgroundImageFix"/>
<feColorMatrix in="SourceAlpha" type="matrix" values="0 0 0 0 0 0 0 0 0 0 0 0 0 0 0 0 0 0 127 0"/>
<feOffset dy="4"/>
<feGaussianBlur stdDeviation="2"/>
<feColorMatrix type="matrix" values="0 0 0 0 0 0 0 0 0 0 0 0 0 0 0 0 0 0 0.2 0"/>
<feBlend mode="normal" in2="BackgroundImageFix" result="effect1_dropShadow"/>
<feBlend mode="normal" in="SourceGraphic" in2="effect1_dropShadow" result="shape"/>
</filter>
</defs>
</svg>
