<svg width="157" height="119" viewBox="0 0 157 119" fill="none" xmlns="http://www.w3.org/2000/svg">
<g filter="url(#filter0_d)">
<rect x="4" width="149" height="111" rx="10" fill="#C4C4C4"/>
</g>
<path d="M4 10C4 4.47715 8.47715 0 14 0H41.75V111H14C8.47715 111 4 106.523 4 101V10Z" fill="#4884E5"/>
<rect x="41" width="37.75" height="111" fill="#0B1ACB"/>
<rect x="78" width="37.75" height="111" fill="#3E55C4"/>
<path d="M115 0H142.75C148.273 0 152.75 4.47715 152.75 10V101C152.75 106.523 148.273 111 142.75 111H115V0Z" fill="#295DF4"/>
<path d="M47.4507 58.0654C47.3289 59.3548 46.853 60.362 46.0229 61.0869C45.1929 61.8063 44.0889 62.166 42.7109 62.166C41.748 62.166 40.8986 61.9391 40.1626 61.4854C39.4321 61.026 38.8677 60.3758 38.4692 59.5347C38.0708 58.6935 37.8633 57.7168 37.8467 56.6045V55.4756C37.8467 54.3356 38.0487 53.3312 38.4526 52.4624C38.8566 51.5936 39.4349 50.924 40.1875 50.4536C40.9456 49.9832 41.82 49.748 42.8105 49.748C44.1442 49.748 45.2178 50.1105 46.0312 50.8354C46.8447 51.5604 47.3179 52.5841 47.4507 53.9067H45.3589C45.2593 53.0379 45.0047 52.4126 44.5952 52.0308C44.1912 51.6434 43.5964 51.4497 42.8105 51.4497C41.8975 51.4497 41.1947 51.7845 40.7021 52.4541C40.2152 53.1182 39.9661 54.0949 39.9551 55.3843V56.4551C39.9551 57.7611 40.1875 58.7572 40.6523 59.4434C41.1227 60.1296 41.8089 60.4727 42.7109 60.4727C43.5355 60.4727 44.1553 60.2873 44.5703 59.9165C44.9854 59.5457 45.2482 58.9287 45.3589 58.0654H47.4507ZM48.7622 57.4263C48.7622 56.5464 48.9365 55.755 49.2852 55.0522C49.6338 54.3439 50.1235 53.8016 50.7544 53.4253C51.3853 53.0435 52.1102 52.8525 52.9292 52.8525C54.1411 52.8525 55.1234 53.2427 55.876 54.0229C56.6341 54.8032 57.0436 55.8381 57.1045 57.1274L57.1128 57.6006C57.1128 58.486 56.9412 59.2773 56.5981 59.9746C56.2606 60.6719 55.7736 61.2114 55.1372 61.5933C54.5063 61.9751 53.7759 62.166 52.9458 62.166C51.6785 62.166 50.6631 61.7454 49.8994 60.9043C49.1413 60.0576 48.7622 58.9315 48.7622 57.5259V57.4263ZM50.7793 57.6006C50.7793 58.5247 50.9702 59.2497 51.3521 59.7754C51.7339 60.2956 52.2651 60.5557 52.9458 60.5557C53.6265 60.5557 54.1549 60.29 54.5312 59.7588C54.9131 59.2275 55.104 58.45 55.104 57.4263C55.104 56.5187 54.9076 55.7993 54.5146 55.2681C54.1273 54.7368 53.5988 54.4712 52.9292 54.4712C52.2707 54.4712 51.7477 54.734 51.3604 55.2598C50.973 55.7799 50.7793 56.5602 50.7793 57.6006ZM60.9644 62H58.9473V49.25H60.9644V62ZM62.7905 57.4429C62.7905 56.0594 63.1115 54.9499 63.7534 54.1143C64.3953 53.2731 65.2559 52.8525 66.335 52.8525C67.2868 52.8525 68.056 53.1846 68.6426 53.8486V49.25H70.6597V62H68.8335L68.7339 61.0703C68.1307 61.8008 67.3255 62.166 66.3184 62.166C65.2669 62.166 64.4147 61.7427 63.7617 60.896C63.1143 60.0493 62.7905 58.8983 62.7905 57.4429ZM64.8076 57.6172C64.8076 58.5303 64.9819 59.2441 65.3306 59.7588C65.6847 60.2679 66.1855 60.5225 66.833 60.5225C67.6576 60.5225 68.2607 60.1545 68.6426 59.4185V55.5835C68.2718 54.8641 67.6742 54.5044 66.8496 54.5044C66.1966 54.5044 65.693 54.7645 65.3389 55.2847C64.9847 55.7993 64.8076 56.5768 64.8076 57.6172ZM79.5249 50.8354V53.0186H81.1104V54.5127H79.5249V59.5264C79.5249 59.8695 79.5913 60.1185 79.7241 60.2734C79.8625 60.4229 80.106 60.4976 80.4546 60.4976C80.687 60.4976 80.9222 60.4699 81.1602 60.4146V61.9751C80.7008 62.1024 80.2581 62.166 79.832 62.166C78.2826 62.166 77.5078 61.311 77.5078 59.6011V54.5127H76.0303V53.0186H77.5078V50.8354H79.5249ZM82.0317 57.4263C82.0317 56.5464 82.2061 55.755 82.5547 55.0522C82.9033 54.3439 83.3931 53.8016 84.0239 53.4253C84.6548 53.0435 85.3797 52.8525 86.1987 52.8525C87.4106 52.8525 88.3929 53.2427 89.1455 54.0229C89.9036 54.8032 90.3132 55.8381 90.374 57.1274L90.3823 57.6006C90.3823 58.486 90.2108 59.2773 89.8677 59.9746C89.5301 60.6719 89.0431 61.2114 88.4067 61.5933C87.7759 61.9751 87.0454 62.166 86.2153 62.166C84.9481 62.166 83.9326 61.7454 83.1689 60.9043C82.4108 60.0576 82.0317 58.9315 82.0317 57.5259V57.4263ZM84.0488 57.6006C84.0488 58.5247 84.2397 59.2497 84.6216 59.7754C85.0034 60.2956 85.5347 60.5557 86.2153 60.5557C86.896 60.5557 87.4245 60.29 87.8008 59.7588C88.1826 59.2275 88.3735 58.45 88.3735 57.4263C88.3735 56.5187 88.1771 55.7993 87.7842 55.2681C87.3968 54.7368 86.8683 54.4712 86.1987 54.4712C85.5402 54.4712 85.0173 54.734 84.6299 55.2598C84.2425 55.7799 84.0488 56.5602 84.0488 57.6006ZM93.96 53.0186L94.0181 54.0562C94.6821 53.2537 95.5537 52.8525 96.6328 52.8525C98.5033 52.8525 99.4551 53.9233 99.4883 56.0649V62H97.4712V56.1812C97.4712 55.6112 97.3467 55.1906 97.0977 54.9194C96.8542 54.6427 96.453 54.5044 95.894 54.5044C95.0806 54.5044 94.4746 54.8724 94.0762 55.6084V62H92.0591V53.0186H93.96ZM105.506 62.166C104.228 62.166 103.19 61.7648 102.394 60.9624C101.602 60.1545 101.207 59.0809 101.207 57.7417V57.4927C101.207 56.5962 101.378 55.7965 101.721 55.0938C102.07 54.3854 102.557 53.8348 103.182 53.4419C103.807 53.049 104.505 52.8525 105.274 52.8525C106.497 52.8525 107.44 53.2427 108.104 54.0229C108.774 54.8032 109.109 55.9072 109.109 57.335V58.1484H103.24C103.301 58.89 103.547 59.4766 103.979 59.9082C104.416 60.3398 104.964 60.5557 105.623 60.5557C106.547 60.5557 107.299 60.1821 107.88 59.4351L108.968 60.4727C108.608 61.0094 108.127 61.4272 107.523 61.7261C106.926 62.0194 106.253 62.166 105.506 62.166ZM105.266 54.4712C104.712 54.4712 104.264 54.6649 103.921 55.0522C103.583 55.4396 103.368 55.9792 103.273 56.6709H107.117V56.5215C107.072 55.8464 106.893 55.3372 106.577 54.9941C106.262 54.6455 105.825 54.4712 105.266 54.4712ZM115.716 59.5596C115.716 59.1999 115.567 58.9259 115.268 58.7378C114.975 58.5496 114.485 58.3836 113.799 58.2397C113.113 58.0959 112.54 57.9132 112.081 57.6919C111.073 57.2049 110.57 56.4993 110.57 55.5752C110.57 54.8005 110.896 54.153 111.549 53.6328C112.202 53.1126 113.032 52.8525 114.04 52.8525C115.113 52.8525 115.979 53.1182 116.638 53.6494C117.302 54.1807 117.634 54.8696 117.634 55.7163H115.617C115.617 55.3289 115.473 55.008 115.185 54.7534C114.897 54.4933 114.515 54.3633 114.04 54.3633C113.597 54.3633 113.234 54.4657 112.952 54.6704C112.675 54.8752 112.537 55.1491 112.537 55.4922C112.537 55.8021 112.667 56.0428 112.927 56.2144C113.187 56.3859 113.713 56.5602 114.504 56.7373C115.296 56.9089 115.916 57.1164 116.364 57.3599C116.818 57.5978 117.152 57.8856 117.368 58.2231C117.59 58.5607 117.7 58.9702 117.7 59.4517C117.7 60.2596 117.365 60.9154 116.696 61.4189C116.026 61.917 115.149 62.166 114.064 62.166C113.328 62.166 112.673 62.0332 112.097 61.7676C111.522 61.502 111.073 61.1367 110.752 60.6719C110.431 60.207 110.271 59.7062 110.271 59.1694H112.23C112.258 59.6453 112.438 60.0133 112.77 60.2734C113.102 60.528 113.542 60.6553 114.089 60.6553C114.621 60.6553 115.025 60.5557 115.301 60.3564C115.578 60.1517 115.716 59.8861 115.716 59.5596Z" fill="white"/>
<defs>
<filter id="filter0_d" x="0" y="0" width="157" height="119" filterUnits="userSpaceOnUse" color-interpolation-filters="sRGB">
<feFlood flood-opacity="0" result="BackgroundImageFix"/>
<feColorMatrix in="SourceAlpha" type="matrix" values="0 0 0 0 0 0 0 0 0 0 0 0 0 0 0 0 0 0 127 0"/>
<feOffset dy="4"/>
<feGaussianBlur stdDeviation="2"/>
<feColorMatrix type="matrix" values="0 0 0 0 0 0 0 0 0 0 0 0 0 0 0 0 0 0 0.2 0"/>
<feBlend mode="normal" in2="BackgroundImageFix" result="effect1_dropShadow"/>
<feBlend mode="normal" in="SourceGraphic" in2="effect1_dropShadow" result="shape"/>
</filter>
</defs>
</svg>
