<svg width="17" height="20" viewBox="0 0 17 20" fill="none" xmlns="http://www.w3.org/2000/svg">
<path d="M12.5263 0.909091C12.5263 0.407014 12.1193 0 11.6172 0H1.78947C0.805263 0 0 0.818182 0 1.81818V13.6507C0 14.1449 0.400587 14.5455 0.894737 14.5455C1.38889 14.5455 1.78947 14.1449 1.78947 13.6507V7.18661C1.78947 4.22171 4.193 1.81818 7.1579 1.81818H11.6172C12.1193 1.81818 12.5263 1.41117 12.5263 0.909091ZM7.7619 3.63636C10.2375 3.63636 12.6095 4.62995 14.346 6.39433C16.0468 8.12239 17 10.4498 17 12.8745V18.1818C17 19.1818 16.1947 20 15.2105 20H5.35947C4.37526 20 3.57895 19.1818 3.57895 18.1818L3.58789 5.45455C3.58789 4.45455 4.38421 3.63636 5.36842 3.63636H7.7619ZM10.7368 8.54721C10.7368 9.34956 11.3873 10 12.1896 10C13.4784 10 14.1291 8.44663 13.2251 7.52813C12.3132 6.60169 10.7368 7.24732 10.7368 8.54721Z" fill="black"/>
</svg>
