<svg width="157" height="119" viewBox="0 0 157 119" fill="none" xmlns="http://www.w3.org/2000/svg">
<g filter="url(#filter0_d)">
<rect x="4" width="149" height="111" rx="10" fill="#C4C4C4"/>
</g>
<path d="M4 10C4 4.47715 8.47715 0 14 0H41.75V111H14C8.47715 111 4 106.523 4 101V10Z" fill="#717171"/>
<rect x="41" width="37.75" height="111" fill="#575757"/>
<rect x="78" width="37.75" height="111" fill="#2D2D2D"/>
<path d="M115 0H142.75C148.273 0 152.75 4.47715 152.75 10V101C152.75 106.523 148.273 111 142.75 111H115V0Z" fill="#222222"/>
<path d="M38.2285 62V49.9141H41.7979C42.8659 49.9141 43.8122 50.152 44.6367 50.6279C45.4668 51.1038 46.1087 51.779 46.5625 52.6533C47.0163 53.5277 47.2432 54.5293 47.2432 55.6582V56.2642C47.2432 57.4097 47.0135 58.4168 46.5542 59.2856C46.1004 60.1545 45.4502 60.8241 44.6035 61.2944C43.7624 61.7648 42.7967 62 41.7065 62H38.2285ZM40.3286 51.6074V60.3232H41.6982C42.7995 60.3232 43.6434 59.9801 44.23 59.2939C44.8221 58.6022 45.1237 57.6117 45.1348 56.3223V55.6499C45.1348 54.3384 44.8498 53.3368 44.2798 52.645C43.7098 51.9533 42.8825 51.6074 41.7979 51.6074H40.3286ZM54.5063 62C54.4178 61.8285 54.3403 61.549 54.2739 61.1616C53.632 61.8312 52.8462 62.166 51.9165 62.166C51.0145 62.166 50.2785 61.9087 49.7085 61.394C49.1385 60.8794 48.8535 60.243 48.8535 59.4849C48.8535 58.5275 49.2077 57.7943 49.916 57.2852C50.6299 56.7705 51.6481 56.5132 52.9707 56.5132H54.2075V55.9238C54.2075 55.459 54.0775 55.0882 53.8174 54.8115C53.5573 54.5293 53.1616 54.3882 52.6304 54.3882C52.1711 54.3882 51.7948 54.5044 51.5015 54.7368C51.2082 54.9637 51.0615 55.2542 51.0615 55.6084H49.0444C49.0444 55.1159 49.2077 54.6566 49.5342 54.2305C49.8607 53.7988 50.3034 53.4613 50.8623 53.2178C51.4268 52.9743 52.0549 52.8525 52.7466 52.8525C53.798 52.8525 54.6364 53.1182 55.2617 53.6494C55.887 54.1751 56.208 54.9167 56.2246 55.874V59.9248C56.2246 60.7327 56.3381 61.3774 56.5649 61.8589V62H54.5063ZM52.29 60.5474C52.6885 60.5474 53.062 60.4505 53.4106 60.2568C53.7648 60.0632 54.0304 59.8031 54.2075 59.4766V57.7832H53.1201C52.373 57.7832 51.8114 57.9132 51.4351 58.1733C51.0588 58.4334 50.8706 58.8014 50.8706 59.2773C50.8706 59.6647 50.9979 59.9746 51.2524 60.207C51.5125 60.4339 51.8584 60.5474 52.29 60.5474ZM63.0396 54.8613C62.7739 54.8171 62.5 54.7949 62.2178 54.7949C61.2936 54.7949 60.6711 55.1491 60.3501 55.8574V62H58.333V53.0186H60.2588L60.3086 54.0229C60.7956 53.2427 61.4707 52.8525 62.334 52.8525C62.6217 52.8525 62.8597 52.8913 63.0479 52.9688L63.0396 54.8613ZM67.2314 58.1484L66.335 59.0698V62H64.3179V49.25H66.335V56.6045L66.9658 55.8159L69.4478 53.0186H71.8716L68.5347 56.7622L72.2285 62H69.896L67.2314 58.1484ZM79.9565 50.8354V53.0186H81.542V54.5127H79.9565V59.5264C79.9565 59.8695 80.0229 60.1185 80.1558 60.2734C80.2941 60.4229 80.5376 60.4976 80.8862 60.4976C81.1187 60.4976 81.3538 60.4699 81.5918 60.4146V61.9751C81.1325 62.1024 80.6898 62.166 80.2637 62.166C78.7142 62.166 77.9395 61.311 77.9395 59.6011V54.5127H76.4619V53.0186H77.9395V50.8354H79.9565ZM82.4634 57.4263C82.4634 56.5464 82.6377 55.755 82.9863 55.0522C83.335 54.3439 83.8247 53.8016 84.4556 53.4253C85.0864 53.0435 85.8114 52.8525 86.6304 52.8525C87.8423 52.8525 88.8245 53.2427 89.5771 54.0229C90.3353 54.8032 90.7448 55.8381 90.8057 57.1274L90.814 57.6006C90.814 58.486 90.6424 59.2773 90.2993 59.9746C89.9618 60.6719 89.4748 61.2114 88.8384 61.5933C88.2075 61.9751 87.4771 62.166 86.647 62.166C85.3797 62.166 84.3643 61.7454 83.6006 60.9043C82.8424 60.0576 82.4634 58.9315 82.4634 57.5259V57.4263ZM84.4805 57.6006C84.4805 58.5247 84.6714 59.2497 85.0532 59.7754C85.4351 60.2956 85.9663 60.5557 86.647 60.5557C87.3276 60.5557 87.8561 60.29 88.2324 59.7588C88.6143 59.2275 88.8052 58.45 88.8052 57.4263C88.8052 56.5187 88.6087 55.7993 88.2158 55.2681C87.8285 54.7368 87.3 54.4712 86.6304 54.4712C85.9718 54.4712 85.4489 54.734 85.0615 55.2598C84.6742 55.7799 84.4805 56.5602 84.4805 57.6006ZM94.3916 53.0186L94.4497 54.0562C95.1138 53.2537 95.9854 52.8525 97.0645 52.8525C98.9349 52.8525 99.8867 53.9233 99.9199 56.0649V62H97.9028V56.1812C97.9028 55.6112 97.7783 55.1906 97.5293 54.9194C97.2858 54.6427 96.8846 54.5044 96.3257 54.5044C95.5122 54.5044 94.9062 54.8724 94.5078 55.6084V62H92.4907V53.0186H94.3916ZM105.938 62.166C104.66 62.166 103.622 61.7648 102.825 60.9624C102.034 60.1545 101.638 59.0809 101.638 57.7417V57.4927C101.638 56.5962 101.81 55.7965 102.153 55.0938C102.501 54.3854 102.988 53.8348 103.614 53.4419C104.239 53.049 104.936 52.8525 105.706 52.8525C106.929 52.8525 107.872 53.2427 108.536 54.0229C109.206 54.8032 109.541 55.9072 109.541 57.335V58.1484H103.672C103.733 58.89 103.979 59.4766 104.411 59.9082C104.848 60.3398 105.396 60.5557 106.054 60.5557C106.978 60.5557 107.731 60.1821 108.312 59.4351L109.399 60.4727C109.04 61.0094 108.558 61.4272 107.955 61.7261C107.357 62.0194 106.685 62.166 105.938 62.166ZM105.697 54.4712C105.144 54.4712 104.696 54.6649 104.353 55.0522C104.015 55.4396 103.799 55.9792 103.705 56.6709H107.548V56.5215C107.504 55.8464 107.324 55.3372 107.009 54.9941C106.693 54.6455 106.256 54.4712 105.697 54.4712ZM116.148 59.5596C116.148 59.1999 115.999 58.9259 115.7 58.7378C115.406 58.5496 114.917 58.3836 114.23 58.2397C113.544 58.0959 112.972 57.9132 112.512 57.6919C111.505 57.2049 111.001 56.4993 111.001 55.5752C111.001 54.8005 111.328 54.153 111.981 53.6328C112.634 53.1126 113.464 52.8525 114.471 52.8525C115.545 52.8525 116.411 53.1182 117.069 53.6494C117.733 54.1807 118.065 54.8696 118.065 55.7163H116.048C116.048 55.3289 115.904 55.008 115.617 54.7534C115.329 54.4933 114.947 54.3633 114.471 54.3633C114.028 54.3633 113.666 54.4657 113.384 54.6704C113.107 54.8752 112.969 55.1491 112.969 55.4922C112.969 55.8021 113.099 56.0428 113.359 56.2144C113.619 56.3859 114.145 56.5602 114.936 56.7373C115.727 56.9089 116.347 57.1164 116.795 57.3599C117.249 57.5978 117.584 57.8856 117.8 58.2231C118.021 58.5607 118.132 58.9702 118.132 59.4517C118.132 60.2596 117.797 60.9154 117.127 61.4189C116.458 61.917 115.581 62.166 114.496 62.166C113.76 62.166 113.104 62.0332 112.529 61.7676C111.953 61.502 111.505 61.1367 111.184 60.6719C110.863 60.207 110.703 59.7062 110.703 59.1694H112.662C112.689 59.6453 112.869 60.0133 113.201 60.2734C113.533 60.528 113.973 60.6553 114.521 60.6553C115.052 60.6553 115.456 60.5557 115.733 60.3564C116.01 60.1517 116.148 59.8861 116.148 59.5596Z" fill="white"/>
<defs>
<filter id="filter0_d" x="0" y="0" width="157" height="119" filterUnits="userSpaceOnUse" color-interpolation-filters="sRGB">
<feFlood flood-opacity="0" result="BackgroundImageFix"/>
<feColorMatrix in="SourceAlpha" type="matrix" values="0 0 0 0 0 0 0 0 0 0 0 0 0 0 0 0 0 0 127 0"/>
<feOffset dy="4"/>
<feGaussianBlur stdDeviation="2"/>
<feColorMatrix type="matrix" values="0 0 0 0 0 0 0 0 0 0 0 0 0 0 0 0 0 0 0.2 0"/>
<feBlend mode="normal" in2="BackgroundImageFix" result="effect1_dropShadow"/>
<feBlend mode="normal" in="SourceGraphic" in2="effect1_dropShadow" result="shape"/>
</filter>
</defs>
</svg>
