<svg width="33" height="33" viewBox="0 0 33 33" fill="none" xmlns="http://www.w3.org/2000/svg">
<path d="M22.5955 4.24194C20.2127 4.24194 17.9258 5.35118 16.4331 7.10406C14.9404 5.35118 12.6535 4.24194 10.2706 4.24194C6.0528 4.24194 2.73877 7.55597 2.73877 11.7738C2.73877 16.9503 7.39484 21.1681 14.4474 27.5771L16.4331 29.371L18.4188 27.5634C25.4713 21.1681 30.1274 16.9503 30.1274 11.7738C30.1274 7.55597 26.8134 4.24194 22.5955 4.24194ZM16.57 25.5366L16.4331 25.6736L16.2962 25.5366C9.77765 19.6344 5.47763 15.7315 5.47763 11.7738C5.47763 9.03496 7.53178 6.98081 10.2706 6.98081C12.3796 6.98081 14.4337 8.33655 15.1595 10.2127H17.7204C18.4325 8.33655 20.4866 6.98081 22.5955 6.98081C25.3344 6.98081 27.3886 9.03496 27.3886 11.7738C27.3886 15.7315 23.0885 19.6344 16.57 25.5366Z" fill="#979797"/>
<path d="M16.695 29.1303L14.7092 27.3226C7.6563 20.927 3 16.709 3 11.5323C3 7.31419 6.31419 4 10.5322 4C12.9152 4 15.2022 5.1093 16.695 6.86226C18.1878 5.1093 20.4748 4 22.8577 4C27.0758 4 30.39 7.31419 30.39 11.5323C30.39 16.709 25.7337 20.927 18.6808 27.3363L16.695 29.1303Z" fill="#FD3554"/>
</svg>
