<svg width="33" height="33" viewBox="0 0 33 33" fill="none" xmlns="http://www.w3.org/2000/svg">
<path d="M22.5955 4.24219C20.2127 4.24219 17.9258 5.35143 16.4331 7.1043C14.9404 5.35143 12.6535 4.24219 10.2706 4.24219C6.0528 4.24219 2.73877 7.55621 2.73877 11.7741C2.73877 16.9505 7.39484 21.1684 14.4474 27.5773L16.4331 29.3713L18.4188 27.5636C25.4713 21.1684 30.1274 16.9505 30.1274 11.7741C30.1274 7.55621 26.8134 4.24219 22.5955 4.24219ZM16.57 25.5369L16.4331 25.6738L16.2962 25.5369C9.77765 19.6346 5.47763 15.7317 5.47763 11.7741C5.47763 9.0352 7.53178 6.98105 10.2706 6.98105C12.3796 6.98105 14.4337 8.33679 15.1595 10.2129H17.7204C18.4325 8.33679 20.4866 6.98105 22.5955 6.98105C25.3344 6.98105 27.3886 9.0352 27.3886 11.7741C27.3886 15.7317 23.0885 19.6346 16.57 25.5369Z" fill="#979797"/>
</svg>
