<svg width="96" height="38" viewBox="0 0 96 38" fill="none" xmlns="http://www.w3.org/2000/svg">
<rect width="96" height="38" rx="15" transform="matrix(1 0 0 -1 0 38)" fill="white"/>
<path d="M23.3262 23.4146C22.9167 24.0011 22.3439 24.4411 21.6079 24.7344C20.8774 25.0221 20.0252 25.166 19.0513 25.166C18.0662 25.166 17.1919 24.9364 16.4282 24.4771C15.6646 24.0122 15.0724 23.3537 14.6519 22.5015C14.2368 21.6493 14.0238 20.6615 14.0127 19.5381V18.4839C14.0127 16.6632 14.436 15.2521 15.2827 14.2505C16.1349 13.2489 17.3302 12.748 18.8687 12.748C20.1304 12.748 21.1458 13.0718 21.915 13.7192C22.6842 14.3612 23.1546 15.2743 23.3262 16.4585H21.7324C21.4336 14.8592 20.4818 14.0596 18.877 14.0596C17.8089 14.0596 16.9982 14.4359 16.4448 15.1885C15.897 15.9355 15.6203 17.0202 15.6147 18.4424V19.4302C15.6147 20.786 15.9246 21.8651 16.5444 22.6675C17.1642 23.4644 18.0026 23.8628 19.0596 23.8628C19.6572 23.8628 20.1802 23.7964 20.6284 23.6636C21.0767 23.5308 21.4474 23.3066 21.7407 22.9912V20.2769H18.9434V18.9819H23.3262V23.4146ZM29.4771 25.166C28.2596 25.166 27.269 24.7676 26.5054 23.9707C25.7417 23.1683 25.3599 22.0975 25.3599 20.7583V20.4761C25.3599 19.5851 25.5286 18.791 25.8662 18.0938C26.2093 17.391 26.6852 16.8431 27.2939 16.4502C27.9082 16.0518 28.5723 15.8525 29.2861 15.8525C30.4538 15.8525 31.3613 16.2371 32.0088 17.0063C32.6562 17.7756 32.98 18.8768 32.98 20.3101V20.9492H26.8955C26.9176 21.8346 27.175 22.5513 27.6675 23.0991C28.1655 23.6414 28.7964 23.9126 29.5601 23.9126C30.1024 23.9126 30.5617 23.8019 30.938 23.5806C31.3143 23.3592 31.6436 23.0659 31.9258 22.7007L32.8638 23.4312C32.1112 24.5877 30.9823 25.166 29.4771 25.166ZM29.2861 17.1143C28.6663 17.1143 28.1462 17.3411 27.7256 17.7949C27.305 18.2432 27.0449 18.874 26.9453 19.6875H31.4443V19.5713C31.4001 18.791 31.1898 18.1878 30.8135 17.7617C30.4372 17.3301 29.9281 17.1143 29.2861 17.1143ZM36.2173 16.0186L36.2671 17.1475C36.9533 16.2842 37.8498 15.8525 38.9565 15.8525C40.8547 15.8525 41.812 16.9233 41.8286 19.0649V25H40.293V19.0566C40.2874 18.4092 40.138 17.9305 39.8447 17.6206C39.557 17.3107 39.106 17.1558 38.4917 17.1558C37.9937 17.1558 37.5565 17.2886 37.1802 17.5542C36.8039 17.8198 36.5106 18.1685 36.3003 18.6001V25H34.7646V16.0186H36.2173ZM47.8716 25.166C46.6541 25.166 45.6636 24.7676 44.8999 23.9707C44.1362 23.1683 43.7544 22.0975 43.7544 20.7583V20.4761C43.7544 19.5851 43.9232 18.791 44.2607 18.0938C44.6038 17.391 45.0798 16.8431 45.6885 16.4502C46.3027 16.0518 46.9668 15.8525 47.6807 15.8525C48.8483 15.8525 49.7559 16.2371 50.4033 17.0063C51.0508 17.7756 51.3745 18.8768 51.3745 20.3101V20.9492H45.29C45.3122 21.8346 45.5695 22.5513 46.062 23.0991C46.5601 23.6414 47.1909 23.9126 47.9546 23.9126C48.4969 23.9126 48.9562 23.8019 49.3325 23.5806C49.7088 23.3592 50.0381 23.0659 50.3203 22.7007L51.2583 23.4312C50.5057 24.5877 49.3768 25.166 47.8716 25.166ZM47.6807 17.1143C47.0609 17.1143 46.5407 17.3411 46.1201 17.7949C45.6995 18.2432 45.4395 18.874 45.3398 19.6875H49.8389V19.5713C49.7946 18.791 49.5843 18.1878 49.208 17.7617C48.8317 17.3301 48.3226 17.1143 47.6807 17.1143ZM57.5005 17.3965C57.2681 17.3577 57.0163 17.3384 56.7451 17.3384C55.738 17.3384 55.0545 17.7673 54.6948 18.625V25H53.1592V16.0186H54.6533L54.6782 17.0562C55.1818 16.2537 55.8957 15.8525 56.8198 15.8525C57.1187 15.8525 57.3455 15.8913 57.5005 15.9688V17.3965ZM64.1328 25C64.0443 24.8229 63.9723 24.5075 63.917 24.0537C63.2031 24.7952 62.3509 25.166 61.3604 25.166C60.4749 25.166 59.7472 24.917 59.1772 24.4189C58.6128 23.9154 58.3306 23.279 58.3306 22.5098C58.3306 21.5745 58.6847 20.8496 59.3931 20.335C60.1069 19.8148 61.1086 19.5547 62.3979 19.5547H63.8921V18.8491C63.8921 18.3123 63.7316 17.8862 63.4106 17.5708C63.0897 17.2498 62.6165 17.0894 61.9912 17.0894C61.4434 17.0894 60.984 17.2277 60.6133 17.5044C60.2425 17.7811 60.0571 18.1159 60.0571 18.5088H58.5132C58.5132 18.0605 58.6709 17.6289 58.9863 17.2139C59.3073 16.7933 59.7389 16.4613 60.2812 16.2178C60.8291 15.9743 61.4295 15.8525 62.0825 15.8525C63.1174 15.8525 63.9281 16.1126 64.5146 16.6328C65.1012 17.1475 65.4056 17.8586 65.4277 18.7661V22.8999C65.4277 23.7244 65.5329 24.3802 65.7432 24.8672V25H64.1328ZM61.5845 23.8296C62.0659 23.8296 62.5225 23.7051 62.9541 23.4561C63.3857 23.207 63.6984 22.8833 63.8921 22.4849V20.6421H62.6885C60.807 20.6421 59.8662 21.1927 59.8662 22.2939C59.8662 22.7754 60.0267 23.1517 60.3477 23.4229C60.6686 23.694 61.0809 23.8296 61.5845 23.8296ZM69.9185 13.8438V16.0186H71.5952V17.2056H69.9185V22.7754C69.9185 23.1351 69.9932 23.4062 70.1426 23.5889C70.292 23.766 70.5465 23.8545 70.9062 23.8545C71.0833 23.8545 71.3268 23.8213 71.6367 23.7549V25C71.2327 25.1107 70.8398 25.166 70.458 25.166C69.7718 25.166 69.2544 24.9585 68.9058 24.5435C68.5571 24.1284 68.3828 23.5391 68.3828 22.7754V17.2056H66.7476V16.0186H68.3828V13.8438H69.9185ZM77.1235 25.166C75.9061 25.166 74.9155 24.7676 74.1519 23.9707C73.3882 23.1683 73.0063 22.0975 73.0063 20.7583V20.4761C73.0063 19.5851 73.1751 18.791 73.5127 18.0938C73.8558 17.391 74.3317 16.8431 74.9404 16.4502C75.5547 16.0518 76.2188 15.8525 76.9326 15.8525C78.1003 15.8525 79.0078 16.2371 79.6553 17.0063C80.3027 17.7756 80.6265 18.8768 80.6265 20.3101V20.9492H74.542C74.5641 21.8346 74.8215 22.5513 75.314 23.0991C75.812 23.6414 76.4429 23.9126 77.2065 23.9126C77.7489 23.9126 78.2082 23.8019 78.5845 23.5806C78.9608 23.3592 79.29 23.0659 79.5723 22.7007L80.5103 23.4312C79.7576 24.5877 78.6287 25.166 77.1235 25.166ZM76.9326 17.1143C76.3128 17.1143 75.7926 17.3411 75.3721 17.7949C74.9515 18.2432 74.6914 18.874 74.5918 19.6875H79.0908V19.5713C79.0465 18.791 78.8363 18.1878 78.46 17.7617C78.0837 17.3301 77.5745 17.1143 76.9326 17.1143Z" fill="black"/>
</svg>
