<svg width="150" height="42" viewBox="0 0 150 42" fill="none" xmlns="http://www.w3.org/2000/svg">
<rect width="150" height="42" rx="15" fill="white"/>
<path d="M42.3438 25.1543C41.8294 25.8249 41.1165 26.3327 40.2051 26.6777C39.2936 27.0228 38.2585 27.1953 37.0996 27.1953C35.9082 27.1953 34.8535 26.9251 33.9355 26.3848C33.0176 25.8444 32.3079 25.0729 31.8066 24.0703C31.3118 23.0612 31.0547 21.8861 31.0352 20.5449V19.4316C31.0352 17.2832 31.5495 15.6068 32.5781 14.4023C33.6068 13.1914 35.0423 12.5859 36.8848 12.5859C38.4668 12.5859 39.7233 12.9766 40.6543 13.7578C41.5853 14.5391 42.1452 15.6654 42.334 17.1367H39.9121C39.6387 15.4245 38.6458 14.5684 36.9336 14.5684C35.8268 14.5684 34.9837 14.9688 34.4043 15.7695C33.8314 16.5638 33.5352 17.7324 33.5156 19.2754V20.3691C33.5156 21.9056 33.8379 23.1003 34.4824 23.9531C35.1335 24.7995 36.0352 25.2227 37.1875 25.2227C38.4505 25.2227 39.349 24.9362 39.8828 24.3633V21.5801H36.9531V19.7051H42.3438V25.1543ZM49.4824 27.1953C47.9785 27.1953 46.7578 26.7233 45.8203 25.7793C44.8893 24.8288 44.4238 23.5658 44.4238 21.9902V21.6973C44.4238 20.6426 44.6257 19.7018 45.0293 18.875C45.4395 18.0417 46.0124 17.3939 46.748 16.9316C47.4837 16.4694 48.304 16.2383 49.209 16.2383C50.6478 16.2383 51.7578 16.6973 52.5391 17.6152C53.3268 18.5332 53.7207 19.832 53.7207 21.5117V22.4688H46.8164C46.888 23.3411 47.1777 24.0312 47.6855 24.5391C48.1999 25.0469 48.8444 25.3008 49.6191 25.3008C50.7064 25.3008 51.5918 24.8613 52.2754 23.9824L53.5547 25.2031C53.1315 25.8346 52.5651 26.3262 51.8555 26.6777C51.1523 27.0228 50.3613 27.1953 49.4824 27.1953ZM49.1992 18.1426C48.5482 18.1426 48.0208 18.3704 47.6172 18.8262C47.2201 19.2819 46.9661 19.9167 46.8555 20.7305H51.377V20.5547C51.3249 19.7604 51.1133 19.1615 50.7422 18.7578C50.3711 18.3477 49.8568 18.1426 49.1992 18.1426ZM58.5449 13.8652V16.4336H60.4102V18.1914H58.5449V24.0898C58.5449 24.4935 58.623 24.7865 58.7793 24.9688C58.9421 25.1445 59.2285 25.2324 59.6387 25.2324C59.9121 25.2324 60.1888 25.1999 60.4688 25.1348V26.9707C59.9284 27.1204 59.4076 27.1953 58.9062 27.1953C57.0833 27.1953 56.1719 26.1895 56.1719 24.1777V18.1914H54.4336V16.4336H56.1719V13.8652H58.5449ZM73.1348 24.1289C73.1348 23.7057 72.959 23.3835 72.6074 23.1621C72.2624 22.9408 71.6862 22.7454 70.8789 22.5762C70.0716 22.4069 69.3978 22.1921 68.8574 21.9316C67.6725 21.3587 67.0801 20.5286 67.0801 19.4414C67.0801 18.5299 67.4642 17.7682 68.2324 17.1562C69.0007 16.5443 69.9772 16.2383 71.1621 16.2383C72.4251 16.2383 73.444 16.5508 74.2188 17.1758C75 17.8008 75.3906 18.6113 75.3906 19.6074H73.0176C73.0176 19.1517 72.8483 18.7741 72.5098 18.4746C72.1712 18.1686 71.722 18.0156 71.1621 18.0156C70.6413 18.0156 70.2148 18.1361 69.8828 18.377C69.5573 18.6178 69.3945 18.9401 69.3945 19.3438C69.3945 19.7083 69.5475 19.9915 69.8535 20.1934C70.1595 20.3952 70.778 20.6003 71.709 20.8086C72.64 21.0104 73.3691 21.2546 73.8965 21.541C74.4303 21.821 74.8242 22.1595 75.0781 22.5566C75.3385 22.9538 75.4688 23.4355 75.4688 24.002C75.4688 24.9525 75.0749 25.724 74.2871 26.3164C73.4993 26.9023 72.4674 27.1953 71.1914 27.1953C70.3255 27.1953 69.554 27.0391 68.877 26.7266C68.1999 26.4141 67.6725 25.9844 67.2949 25.4375C66.9173 24.8906 66.7285 24.3014 66.7285 23.6699H69.0332C69.0658 24.2298 69.2773 24.6628 69.668 24.9688C70.0586 25.2682 70.5762 25.418 71.2207 25.418C71.8457 25.418 72.321 25.3008 72.6465 25.0664C72.972 24.8255 73.1348 24.513 73.1348 24.1289ZM80.5176 13.8652V16.4336H82.3828V18.1914H80.5176V24.0898C80.5176 24.4935 80.5957 24.7865 80.752 24.9688C80.9147 25.1445 81.2012 25.2324 81.6113 25.2324C81.8848 25.2324 82.1615 25.1999 82.4414 25.1348V26.9707C81.901 27.1204 81.3802 27.1953 80.8789 27.1953C79.056 27.1953 78.1445 26.1895 78.1445 24.1777V18.1914H76.4062V16.4336H78.1445V13.8652H80.5176ZM90.5176 27C90.4134 26.7982 90.3223 26.4694 90.2441 26.0137C89.4889 26.8014 88.5645 27.1953 87.4707 27.1953C86.4095 27.1953 85.5436 26.8926 84.873 26.2871C84.2025 25.6816 83.8672 24.9329 83.8672 24.041C83.8672 22.9147 84.2839 22.0521 85.1172 21.4531C85.957 20.8477 87.1549 20.5449 88.7109 20.5449H90.166V19.8516C90.166 19.3047 90.013 18.8685 89.707 18.543C89.401 18.2109 88.9355 18.0449 88.3105 18.0449C87.7702 18.0449 87.3275 18.1816 86.9824 18.4551C86.6374 18.722 86.4648 19.0638 86.4648 19.4805H84.0918C84.0918 18.901 84.2839 18.3607 84.668 17.8594C85.0521 17.3516 85.5729 16.9544 86.2305 16.668C86.8945 16.3815 87.6335 16.2383 88.4473 16.2383C89.6842 16.2383 90.6706 16.5508 91.4062 17.1758C92.1419 17.7943 92.5195 18.6667 92.5391 19.793V24.5586C92.5391 25.5091 92.6725 26.2676 92.9395 26.834V27H90.5176ZM87.9102 25.291C88.3789 25.291 88.8184 25.1771 89.2285 24.9492C89.6452 24.7214 89.9577 24.4154 90.166 24.0312V22.0391H88.8867C88.0078 22.0391 87.347 22.1921 86.9043 22.498C86.4616 22.804 86.2402 23.237 86.2402 23.7969C86.2402 24.2526 86.39 24.6172 86.6895 24.8906C86.9954 25.1576 87.4023 25.291 87.9102 25.291ZM100.557 18.6016C100.244 18.5495 99.9219 18.5234 99.5898 18.5234C98.5026 18.5234 97.7702 18.9401 97.3926 19.7734V27H95.0195V16.4336H97.2852L97.3438 17.6152C97.9167 16.6973 98.7109 16.2383 99.7266 16.2383C100.065 16.2383 100.345 16.2839 100.566 16.375L100.557 18.6016ZM105.518 13.8652V16.4336H107.383V18.1914H105.518V24.0898C105.518 24.4935 105.596 24.7865 105.752 24.9688C105.915 25.1445 106.201 25.2324 106.611 25.2324C106.885 25.2324 107.161 25.1999 107.441 25.1348V26.9707C106.901 27.1204 106.38 27.1953 105.879 27.1953C104.056 27.1953 103.145 26.1895 103.145 24.1777V18.1914H101.406V16.4336H103.145V13.8652H105.518Z" fill="#0B1ACB"/>
<path d="M118 15L116.59 16.41L121.17 21L116.59 25.59L118 27L124 21L118 15Z" fill="#0B1ACB"/>
</svg>
