<svg width="182" height="49" viewBox="0 0 182 49" fill="none" xmlns="http://www.w3.org/2000/svg">
<path d="M9.12 33.175C8.25667 33.175 7.63833 32.9883 7.265 32.615C6.89167 32.2183 6.705 31.4833 6.705 30.41C6.705 29.6867 6.775 28.765 6.915 27.645C7.07833 26.5017 7.335 24.9383 7.685 22.955C8.29167 19.2917 8.77 16.1183 9.12 13.435C9.33 11.755 9.435 10.355 9.435 9.235C9.435 8.185 9.05 7.66 8.28 7.66C7.67333 7.66 6.93833 7.975 6.075 8.605C5.235 9.21167 4.30167 10.1917 3.275 11.545C2.94833 11.9883 2.58667 12.21 2.19 12.21C1.86333 12.21 1.57167 12.0583 1.315 11.755C1.08167 11.4283 0.965 11.0667 0.965 10.67C0.965 10.2967 1.035 9.92333 1.175 9.55C1.33833 9.15333 1.595 8.71 1.945 8.22C3.065 6.65667 4.31333 5.455 5.69 4.615C7.06667 3.75166 8.44333 3.32 9.82 3.32C11.1033 3.32 12.0833 3.72833 12.76 4.545C13.46 5.36167 13.81 6.55167 13.81 8.115C13.81 8.745 13.7517 9.49167 13.635 10.355C13.5183 11.195 13.4133 11.8833 13.32 12.42C13.2267 12.9567 13.1567 13.33 13.11 13.54C14.44 9.73667 15.9333 7.08833 17.59 5.595C19.2467 4.07833 21.0667 3.32 23.05 3.32C24.5667 3.32 25.7567 3.85666 26.62 4.93C27.5067 6.00333 27.95 7.52 27.95 9.48C27.95 10.25 27.845 11.2067 27.635 12.35C28.8017 9.13 30.1667 6.82 31.73 5.42C33.2933 4.02 35.09 3.32 37.12 3.32C38.7533 3.32 40.0017 3.845 40.865 4.895C41.7517 5.945 42.195 7.415 42.195 9.305C42.195 10.3317 42.0433 11.58 41.74 13.05L39.605 23.06C39.3717 24.2267 39.255 25.23 39.255 26.07C39.255 27.05 39.4767 27.785 39.92 28.275C40.3867 28.765 41.0283 29.01 41.845 29.01C42.615 29.01 43.3617 28.7533 44.085 28.24C44.8317 27.7267 45.7067 26.875 46.71 25.685C46.99 25.3583 47.305 25.195 47.655 25.195C47.9583 25.195 48.1917 25.335 48.355 25.615C48.5417 25.895 48.635 26.28 48.635 26.77C48.635 27.68 48.4133 28.4033 47.97 28.94C46.7567 30.41 45.555 31.4833 44.365 32.16C43.175 32.8367 41.9267 33.175 40.62 33.175C38.6367 33.175 37.085 32.5917 35.965 31.425C34.845 30.235 34.285 28.6483 34.285 26.665C34.285 25.2883 34.565 23.2933 35.125 20.68L36.525 14.275C36.5717 14.065 36.6533 13.6917 36.77 13.155C36.8867 12.6183 36.98 12.1167 37.05 11.65C37.12 11.16 37.155 10.6817 37.155 10.215C37.155 9.39833 36.9917 8.79167 36.665 8.395C36.3617 7.975 35.9183 7.765 35.335 7.765C34.2383 7.765 33.0833 8.47667 31.87 9.9C30.68 11.3 29.5367 13.6333 28.44 16.9C27.3667 20.1667 26.4917 24.4133 25.815 29.64C25.6517 31.04 25.36 31.985 24.94 32.475C24.5433 32.9417 23.89 33.175 22.98 33.175C22.1867 33.175 21.6033 32.9883 21.23 32.615C20.88 32.2417 20.705 31.5417 20.705 30.515C20.705 29.5583 20.8333 28.31 21.09 26.77C21.3467 25.2067 21.6733 23.375 22.07 21.275C23.1433 15.6283 23.68 11.9883 23.68 10.355C23.68 9.46833 23.505 8.815 23.155 8.395C22.8283 7.975 22.3267 7.765 21.65 7.765C20.5067 7.765 19.3283 8.41833 18.115 9.725C16.9017 11.0083 15.7117 13.3067 14.545 16.62C13.4017 19.91 12.445 24.3667 11.675 29.99C11.5117 31.18 11.2667 32.0083 10.94 32.475C10.6367 32.9417 10.03 33.175 9.12 33.175ZM75.9148 25.16C76.0548 25.1133 76.2648 25.09 76.5448 25.09C77.3381 25.09 77.7348 25.6033 77.7348 26.63C77.7348 27.19 77.6064 27.6683 77.3498 28.065C77.1164 28.4383 76.7431 28.6717 76.2298 28.765C74.1064 29.1617 72.0181 29.605 69.9648 30.095L69.8598 30.935C69.2064 35.5317 67.8998 38.9267 65.9398 41.12C64.0031 43.3367 61.5764 44.445 58.6598 44.445C56.7231 44.445 55.2181 43.9667 54.1448 43.01C53.0948 42.0767 52.5698 40.875 52.5698 39.405C52.5698 36.955 53.6664 34.7733 55.8598 32.86C58.0531 30.9467 61.3781 29.255 65.8348 27.785L66.5348 22.85C66.6281 22.29 66.7448 21.5433 66.8848 20.61C65.7881 23.5033 64.3881 25.6617 62.6848 27.085C60.9814 28.5083 59.0798 29.22 56.9798 29.22C54.9731 29.22 53.4448 28.6133 52.3948 27.4C51.3448 26.1633 50.8198 24.5767 50.8198 22.64C50.8198 21.7767 50.9131 20.8317 51.0998 19.805C51.2864 18.755 51.5781 17.3433 51.9748 15.57C52.3248 13.96 52.5814 12.6767 52.7448 11.72C52.9314 10.7633 53.0248 9.91166 53.0248 9.165C53.0248 8.045 52.5931 7.485 51.7298 7.485C51.0531 7.485 50.2481 7.82333 49.3148 8.5C48.4048 9.15333 47.4364 10.1683 46.4098 11.545C46.0831 11.9883 45.7214 12.21 45.3248 12.21C44.9981 12.21 44.7064 12.0583 44.4498 11.755C44.2164 11.4283 44.0998 11.0667 44.0998 10.67C44.0998 9.94667 44.4264 9.13 45.0798 8.22C47.4598 4.95333 50.2481 3.32 53.4448 3.32C54.8681 3.32 55.9764 3.75166 56.7698 4.615C57.5864 5.47833 57.9948 6.75 57.9948 8.43C57.9948 9.64333 57.8781 10.8917 57.6448 12.175C57.4348 13.435 57.1081 15.045 56.6648 17.005C56.3848 18.1717 56.1748 19.1167 56.0348 19.84C55.8948 20.54 55.8248 21.1233 55.8248 21.59C55.8248 22.78 56.0348 23.6317 56.4548 24.145C56.8748 24.6583 57.6098 24.915 58.6598 24.915C59.9198 24.915 61.2031 24.2267 62.5098 22.85C63.8398 21.45 65.0298 19.3383 66.0798 16.515C67.1531 13.6917 67.9231 10.2383 68.3898 6.155C68.5064 5.12833 68.7748 4.405 69.1948 3.985C69.6148 3.54166 70.2214 3.32 71.0148 3.32C72.6481 3.32 73.4648 4.13666 73.4648 5.77C73.4648 6.05 73.4531 6.27167 73.4298 6.435C72.9398 9.91167 72.4848 13.05 72.0648 15.85C71.8314 17.53 71.5748 19.2567 71.2948 21.03C71.0381 22.8033 70.7814 24.6 70.5248 26.42C72.2281 25.9533 74.0248 25.5333 75.9148 25.16ZM65.3098 31.46C59.6631 33.42 56.8398 35.8 56.8398 38.6C56.8398 39.2533 57.0381 39.79 57.4348 40.21C57.8548 40.6533 58.4381 40.875 59.1848 40.875C62.4281 40.875 64.4581 37.8183 65.2748 31.705L65.3098 31.46ZM103.538 25.195C103.841 25.195 104.075 25.335 104.238 25.615C104.425 25.895 104.518 26.28 104.518 26.77C104.518 27.7033 104.296 28.4267 103.853 28.94C102.85 30.1767 101.765 31.1917 100.598 31.985C99.4546 32.7783 98.148 33.175 96.678 33.175C95.4413 33.175 94.438 32.7317 93.668 31.845C92.338 32.7083 90.9496 33.1517 89.503 33.175C89.1996 37.6783 88.5113 41.435 87.438 44.445C86.3646 47.4783 84.7896 48.995 82.713 48.995C81.453 48.995 80.5196 48.54 79.913 47.63C79.3063 46.72 79.003 45.46 79.003 43.85C79.003 41.5633 79.528 38.8917 80.578 35.835C81.628 32.8017 83.2496 29.4533 85.443 25.79C85.443 22.3833 85.4196 20.015 85.373 18.685C85.3496 18.0083 85.618 17.4717 86.178 17.075C86.738 16.6783 87.438 16.48 88.278 16.48C88.768 16.48 89.118 16.585 89.328 16.795C89.5613 16.9817 89.6896 17.3667 89.713 17.95C89.713 18.5333 89.7246 18.965 89.748 19.245C90.4946 18.3117 91.2296 17.6467 91.953 17.25C92.6763 16.83 93.4463 16.62 94.263 16.62C95.5696 16.62 96.6313 17.145 97.448 18.195C98.288 19.245 98.708 20.6217 98.708 22.325C98.708 23.5617 98.5096 24.7633 98.113 25.93C97.7163 27.0967 97.168 28.1583 96.468 29.115C96.958 29.255 97.3663 29.325 97.693 29.325C98.463 29.325 99.198 29.045 99.898 28.485C100.598 27.925 101.496 26.9917 102.593 25.685C102.873 25.3583 103.188 25.195 103.538 25.195ZM89.678 29.815C90.518 29.6283 91.288 29.1733 91.988 28.45C92.7113 27.7033 93.283 26.7933 93.703 25.72C94.123 24.6233 94.333 23.48 94.333 22.29C94.333 21.59 94.193 21.065 93.913 20.715C93.633 20.3417 93.2596 20.155 92.793 20.155C91.953 20.155 90.938 21.0417 89.748 22.815C89.7246 23.8417 89.713 25.3467 89.713 27.33C89.713 28.4033 89.7013 29.2317 89.678 29.815ZM82.993 45.565C83.623 45.565 84.148 44.1883 84.568 41.435C84.988 38.705 85.2563 35.2983 85.373 31.215C84.3696 33.5483 83.5763 35.7767 82.993 37.9C82.4096 40.0233 82.118 41.8083 82.118 43.255C82.118 44.0017 82.2113 44.5733 82.398 44.97C82.5613 45.3667 82.7596 45.565 82.993 45.565ZM106.004 33.175C104.557 33.175 103.402 32.65 102.539 31.6C101.675 30.55 101.244 29.1733 101.244 27.47C101.244 25.6033 101.675 23.8417 102.539 22.185C103.402 20.505 104.545 19.1633 105.969 18.16C107.415 17.1333 108.944 16.62 110.554 16.62C111.067 16.62 111.405 16.725 111.569 16.935C111.755 17.1217 111.907 17.4717 112.024 17.985C112.514 17.8917 113.027 17.845 113.564 17.845C114.707 17.845 115.279 18.2533 115.279 19.07C115.279 19.56 115.104 20.7267 114.754 22.57C114.217 25.2533 113.949 27.12 113.949 28.17C113.949 28.52 114.03 28.8 114.194 29.01C114.38 29.22 114.614 29.325 114.894 29.325C115.337 29.325 115.874 29.045 116.504 28.485C117.134 27.9017 117.985 26.9683 119.059 25.685C119.339 25.3583 119.654 25.195 120.004 25.195C120.307 25.195 120.54 25.335 120.704 25.615C120.89 25.895 120.984 26.28 120.984 26.77C120.984 27.7033 120.762 28.4267 120.319 28.94C119.362 30.13 118.347 31.1333 117.274 31.95C116.2 32.7667 115.162 33.175 114.159 33.175C113.389 33.175 112.677 32.9183 112.024 32.405C111.394 31.8683 110.915 31.145 110.589 30.235C109.375 32.195 107.847 33.175 106.004 33.175ZM107.264 29.64C107.777 29.64 108.267 29.3367 108.734 28.73C109.2 28.1233 109.539 27.3183 109.749 26.315L111.044 19.875C110.064 19.8983 109.154 20.2717 108.314 20.995C107.497 21.695 106.844 22.6283 106.354 23.795C105.864 24.9617 105.619 26.1983 105.619 27.505C105.619 28.2283 105.759 28.765 106.039 29.115C106.342 29.465 106.75 29.64 107.264 29.64ZM131.404 25.195C131.707 25.195 131.941 25.335 132.104 25.615C132.291 25.895 132.384 26.28 132.384 26.77C132.384 27.7033 132.162 28.4267 131.719 28.94C130.716 30.1767 129.619 31.1917 128.429 31.985C127.262 32.7783 125.932 33.175 124.439 33.175C122.386 33.175 120.857 32.2417 119.854 30.375C118.874 28.5083 118.384 26.0933 118.384 23.13C118.384 20.2833 118.746 17.04 119.469 13.4C120.216 9.76 121.301 6.63333 122.724 4.02C124.171 1.40666 125.886 0.099998 127.869 0.099998C128.989 0.099998 129.864 0.624998 130.494 1.675C131.147 2.70167 131.474 4.18333 131.474 6.12C131.474 8.89667 130.704 12.1167 129.164 15.78C127.624 19.4433 125.536 23.0717 122.899 26.665C123.062 27.6217 123.331 28.31 123.704 28.73C124.077 29.1267 124.567 29.325 125.174 29.325C126.131 29.325 126.971 29.0567 127.694 28.52C128.417 27.96 129.339 27.015 130.459 25.685C130.739 25.3583 131.054 25.195 131.404 25.195ZM127.099 3.565C126.562 3.565 125.956 4.53333 125.279 6.47C124.602 8.40667 124.007 10.81 123.494 13.68C122.981 16.55 122.701 19.3033 122.654 21.94C124.311 19.21 125.629 16.48 126.609 13.75C127.589 10.9967 128.079 8.48833 128.079 6.225C128.079 4.45167 127.752 3.565 127.099 3.565ZM145.165 25.195C145.468 25.195 145.702 25.335 145.865 25.615C146.052 25.895 146.145 26.28 146.145 26.77C146.145 27.7033 145.923 28.4267 145.48 28.94C144.617 29.99 143.392 30.9583 141.805 31.845C140.242 32.7317 138.562 33.175 136.765 33.175C134.315 33.175 132.413 32.51 131.06 31.18C129.707 29.85 129.03 28.03 129.03 25.72C129.03 24.11 129.368 22.6167 130.045 21.24C130.722 19.84 131.655 18.7317 132.845 17.915C134.058 17.0983 135.423 16.69 136.94 16.69C138.293 16.69 139.378 17.0983 140.195 17.915C141.012 18.7083 141.42 19.7933 141.42 21.17C141.42 22.78 140.837 24.1683 139.67 25.335C138.527 26.4783 136.578 27.3883 133.825 28.065C134.408 29.1383 135.517 29.675 137.15 29.675C138.2 29.675 139.39 29.3133 140.72 28.59C142.073 27.8433 143.24 26.875 144.22 25.685C144.5 25.3583 144.815 25.195 145.165 25.195ZM136.345 20.12C135.482 20.12 134.747 20.6217 134.14 21.625C133.557 22.6283 133.265 23.8417 133.265 25.265V25.335C134.642 25.0083 135.727 24.5183 136.52 23.865C137.313 23.2117 137.71 22.4533 137.71 21.59C137.71 21.1467 137.582 20.7967 137.325 20.54C137.092 20.26 136.765 20.12 136.345 20.12ZM169.86 25.195C170.164 25.195 170.397 25.335 170.56 25.615C170.747 25.895 170.84 26.28 170.84 26.77C170.84 27.7033 170.619 28.4267 170.175 28.94C169.172 30.1767 168.075 31.1917 166.885 31.985C165.695 32.7783 164.33 33.175 162.79 33.175C159.944 33.175 157.96 31.985 156.84 29.605C156.234 30.585 155.429 31.425 154.425 32.125C153.422 32.825 152.349 33.175 151.205 33.175C148.989 33.175 147.355 32.2767 146.305 30.48C145.279 28.66 144.765 26.21 144.765 23.13C144.765 21.9867 144.824 20.715 144.94 19.315H143.505C142.805 19.315 142.327 19.1867 142.07 18.93C141.837 18.6733 141.72 18.265 141.72 17.705C141.72 16.3983 142.245 15.745 143.295 15.745H145.43C145.874 13.2717 146.492 11.0317 147.285 9.025C148.079 7.01833 149.035 5.42 150.155 4.23C151.275 3.04 152.489 2.445 153.795 2.445C154.775 2.445 155.545 2.87667 156.105 3.74C156.665 4.60333 156.945 5.68833 156.945 6.995C156.945 10.285 155.674 13.2017 153.13 15.745H156.315C156.759 13.2717 157.377 11.0317 158.17 9.025C158.964 7.01833 159.92 5.42 161.04 4.23C162.16 3.04 163.374 2.445 164.68 2.445C165.66 2.445 166.43 2.87667 166.99 3.74C167.55 4.60333 167.83 5.68833 167.83 6.995C167.83 10.285 166.559 13.2017 164.015 15.745H167.2C167.574 15.745 167.842 15.8267 168.005 15.99C168.169 16.1533 168.25 16.4567 168.25 16.9C168.25 18.51 166.932 19.315 164.295 19.315H160.06C159.99 20.435 159.955 21.5783 159.955 22.745C159.955 25.1717 160.235 26.875 160.795 27.855C161.379 28.835 162.289 29.325 163.525 29.325C164.529 29.325 165.415 29.0217 166.185 28.415C166.955 27.8083 167.865 26.8983 168.915 25.685C169.195 25.3583 169.51 25.195 169.86 25.195ZM152.85 5.805C152.5 5.805 152.104 6.24833 151.66 7.135C151.24 7.99833 150.832 9.21167 150.435 10.775C150.062 12.315 149.747 14.03 149.49 15.92C150.867 14.73 151.894 13.4 152.57 11.93C153.27 10.4367 153.62 9.08333 153.62 7.87C153.62 6.49333 153.364 5.805 152.85 5.805ZM163.735 5.805C163.385 5.805 162.989 6.24833 162.545 7.135C162.125 7.99833 161.717 9.21167 161.32 10.775C160.947 12.315 160.632 14.03 160.375 15.92C161.752 14.73 162.779 13.4 163.455 11.93C164.155 10.4367 164.505 9.08333 164.505 7.87C164.505 6.49333 164.249 5.805 163.735 5.805ZM151.94 29.325C152.64 29.325 153.34 28.9983 154.04 28.345C154.74 27.6917 155.335 26.8867 155.825 25.93C155.709 25.2067 155.65 24.2733 155.65 23.13C155.65 21.9867 155.709 20.715 155.825 19.315H149.175C149.105 20.435 149.07 21.5783 149.07 22.745C149.07 25.1017 149.315 26.7933 149.805 27.82C150.319 28.8233 151.03 29.325 151.94 29.325ZM180.537 26.245C180.84 26.245 181.074 26.385 181.237 26.665C181.424 26.945 181.517 27.33 181.517 27.82C181.517 28.66 181.319 29.3833 180.922 29.99C180.269 30.9933 179.405 31.775 178.332 32.335C177.282 32.895 176.022 33.175 174.552 33.175C172.312 33.175 170.574 32.51 169.337 31.18C168.1 29.8267 167.482 28.0067 167.482 25.72C167.482 24.11 167.82 22.6167 168.497 21.24C169.174 19.84 170.107 18.7317 171.297 17.915C172.51 17.0983 173.875 16.69 175.392 16.69C176.745 16.69 177.83 17.0983 178.647 17.915C179.464 18.7083 179.872 19.7933 179.872 21.17C179.872 22.78 179.289 24.1683 178.122 25.335C176.979 26.4783 175.019 27.3883 172.242 28.065C172.802 29.1383 173.747 29.675 175.077 29.675C176.034 29.675 176.815 29.4533 177.422 29.01C178.052 28.5667 178.775 27.82 179.592 26.77C179.872 26.42 180.187 26.245 180.537 26.245ZM174.797 20.12C173.934 20.12 173.199 20.6217 172.592 21.625C172.009 22.6283 171.717 23.8417 171.717 25.265V25.335C173.094 25.0083 174.179 24.5183 174.972 23.865C175.765 23.2117 176.162 22.4533 176.162 21.59C176.162 21.1467 176.034 20.7967 175.777 20.54C175.544 20.26 175.217 20.12 174.797 20.12Z" fill="#3E55C4"/>
</svg>
