<svg width="157" height="119" viewBox="0 0 157 119" fill="none" xmlns="http://www.w3.org/2000/svg">
<g filter="url(#filter0_d)">
<rect x="4" width="149" height="111" rx="10" fill="#C4C4C4"/>
</g>
<path d="M4 10C4 4.47715 8.47715 0 14 0H41.75V111H14C8.47715 111 4 106.523 4 101V10Z" fill="#35DB8E"/>
<rect x="41" width="37.75" height="111" fill="#36D088"/>
<rect x="78" width="37.75" height="111" fill="#30C780"/>
<path d="M115 0H142.75C148.273 0 152.75 4.47715 152.75 10V101C152.75 106.523 148.273 111 142.75 111H115V0Z" fill="#23945F"/>
<path d="M30.9512 49.9141L34.4375 59.1777L37.9155 49.9141H40.6299V62H38.5381V58.0156L38.7456 52.6865L35.1763 62H33.6738L30.1128 52.6948L30.3203 58.0156V62H28.2285V49.9141H30.9512ZM42.5474 57.4263C42.5474 56.5464 42.7217 55.755 43.0703 55.0522C43.4189 54.3439 43.9087 53.8016 44.5396 53.4253C45.1704 53.0435 45.8953 52.8525 46.7144 52.8525C47.9263 52.8525 48.9085 53.2427 49.6611 54.0229C50.4193 54.8032 50.8288 55.8381 50.8896 57.1274L50.8979 57.6006C50.8979 58.486 50.7264 59.2773 50.3833 59.9746C50.0457 60.6719 49.5588 61.2114 48.9224 61.5933C48.2915 61.9751 47.561 62.166 46.731 62.166C45.4637 62.166 44.4482 61.7454 43.6846 60.9043C42.9264 60.0576 42.5474 58.9315 42.5474 57.5259V57.4263ZM44.5645 57.6006C44.5645 58.5247 44.7554 59.2497 45.1372 59.7754C45.519 60.2956 46.0503 60.5557 46.731 60.5557C47.4116 60.5557 47.9401 60.29 48.3164 59.7588C48.6982 59.2275 48.8892 58.45 48.8892 57.4263C48.8892 56.5187 48.6927 55.7993 48.2998 55.2681C47.9124 54.7368 47.384 54.4712 46.7144 54.4712C46.0558 54.4712 45.5329 54.734 45.1455 55.2598C44.7581 55.7799 44.5645 56.5602 44.5645 57.6006ZM54.4756 53.0186L54.5337 54.0562C55.1978 53.2537 56.0693 52.8525 57.1484 52.8525C59.0189 52.8525 59.9707 53.9233 60.0039 56.0649V62H57.9868V56.1812C57.9868 55.6112 57.8623 55.1906 57.6133 54.9194C57.3698 54.6427 56.9686 54.5044 56.4097 54.5044C55.5962 54.5044 54.9902 54.8724 54.5918 55.6084V62H52.5747V53.0186H54.4756ZM61.689 57.4263C61.689 56.5464 61.8633 55.755 62.2119 55.0522C62.5605 54.3439 63.0503 53.8016 63.6812 53.4253C64.312 53.0435 65.0369 52.8525 65.856 52.8525C67.0679 52.8525 68.0501 53.2427 68.8027 54.0229C69.5609 54.8032 69.9704 55.8381 70.0312 57.1274L70.0396 57.6006C70.0396 58.486 69.868 59.2773 69.5249 59.9746C69.1873 60.6719 68.7004 61.2114 68.064 61.5933C67.4331 61.9751 66.7026 62.166 65.8726 62.166C64.6053 62.166 63.5898 61.7454 62.8262 60.9043C62.068 60.0576 61.689 58.9315 61.689 57.5259V57.4263ZM63.7061 57.6006C63.7061 58.5247 63.897 59.2497 64.2788 59.7754C64.6606 60.2956 65.1919 60.5557 65.8726 60.5557C66.5532 60.5557 67.0817 60.29 67.458 59.7588C67.8398 59.2275 68.0308 58.45 68.0308 57.4263C68.0308 56.5187 67.8343 55.7993 67.4414 55.2681C67.054 54.7368 66.5256 54.4712 65.856 54.4712C65.1974 54.4712 64.6745 54.734 64.2871 55.2598C63.8997 55.7799 63.7061 56.5602 63.7061 57.6006ZM75.4351 60.5557C75.9386 60.5557 76.3564 60.409 76.6885 60.1157C77.0205 59.8224 77.1976 59.46 77.2197 59.0283H79.1206C79.0985 59.5872 78.9242 60.1102 78.5977 60.5972C78.2712 61.0786 77.8285 61.4604 77.2695 61.7427C76.7106 62.0249 76.1074 62.166 75.46 62.166C74.2038 62.166 73.2077 61.7593 72.4717 60.9458C71.7357 60.1323 71.3677 59.009 71.3677 57.5757V57.3682C71.3677 56.0013 71.7329 54.9084 72.4634 54.0894C73.1938 53.2648 74.1899 52.8525 75.4517 52.8525C76.5197 52.8525 77.3885 53.1652 78.0581 53.7905C78.7332 54.4103 79.0874 55.2266 79.1206 56.2393H77.2197C77.1976 55.7246 77.0205 55.3013 76.6885 54.9692C76.362 54.6372 75.9442 54.4712 75.4351 54.4712C74.7821 54.4712 74.2785 54.7091 73.9243 55.1851C73.5701 55.6554 73.3903 56.3721 73.3848 57.335V57.6587C73.3848 58.6326 73.5591 59.3604 73.9077 59.8418C74.2619 60.3177 74.771 60.5557 75.4351 60.5557ZM82.6318 53.998C83.2904 53.2344 84.1232 52.8525 85.1304 52.8525C87.0451 52.8525 88.0163 53.9455 88.0439 56.1313V62H86.0269V56.2061C86.0269 55.5863 85.8913 55.1491 85.6201 54.8945C85.3545 54.6344 84.9616 54.5044 84.4414 54.5044C83.6335 54.5044 83.0303 54.8641 82.6318 55.5835V62H80.6147V49.25H82.6318V53.998ZM94.7925 54.8613C94.5269 54.8171 94.2529 54.7949 93.9707 54.7949C93.0465 54.7949 92.424 55.1491 92.103 55.8574V62H90.0859V53.0186H92.0117L92.0615 54.0229C92.5485 53.2427 93.2236 52.8525 94.0869 52.8525C94.3747 52.8525 94.6126 52.8913 94.8008 52.9688L94.7925 54.8613ZM95.3901 57.4263C95.3901 56.5464 95.5645 55.755 95.9131 55.0522C96.2617 54.3439 96.7515 53.8016 97.3823 53.4253C98.0132 53.0435 98.7381 52.8525 99.5571 52.8525C100.769 52.8525 101.751 53.2427 102.504 54.0229C103.262 54.8032 103.672 55.8381 103.732 57.1274L103.741 57.6006C103.741 58.486 103.569 59.2773 103.226 59.9746C102.889 60.6719 102.402 61.2114 101.765 61.5933C101.134 61.9751 100.404 62.166 99.5737 62.166C98.3065 62.166 97.291 61.7454 96.5273 60.9043C95.7692 60.0576 95.3901 58.9315 95.3901 57.5259V57.4263ZM97.4072 57.6006C97.4072 58.5247 97.5981 59.2497 97.98 59.7754C98.3618 60.2956 98.8931 60.5557 99.5737 60.5557C100.254 60.5557 100.783 60.29 101.159 59.7588C101.541 59.2275 101.732 58.45 101.732 57.4263C101.732 56.5187 101.535 55.7993 101.143 55.2681C100.755 54.7368 100.227 54.4712 99.5571 54.4712C98.8986 54.4712 98.3757 54.734 97.9883 55.2598C97.6009 55.7799 97.4072 56.5602 97.4072 57.6006ZM107.343 53.0186L107.401 53.9565C108.032 53.2205 108.896 52.8525 109.991 52.8525C111.192 52.8525 112.014 53.3118 112.457 54.2305C113.11 53.3118 114.028 52.8525 115.212 52.8525C116.203 52.8525 116.939 53.1265 117.42 53.6743C117.907 54.2222 118.156 55.0301 118.167 56.0981V62H116.15V56.1562C116.15 55.5863 116.026 55.1685 115.777 54.9028C115.528 54.6372 115.116 54.5044 114.54 54.5044C114.081 54.5044 113.704 54.6289 113.411 54.8779C113.123 55.1214 112.921 55.4424 112.805 55.8408L112.813 62H110.796V56.0898C110.769 55.0329 110.229 54.5044 109.178 54.5044C108.37 54.5044 107.797 54.8337 107.459 55.4922V62H105.442V53.0186H107.343ZM124.194 62.166C122.916 62.166 121.878 61.7648 121.081 60.9624C120.29 60.1545 119.894 59.0809 119.894 57.7417V57.4927C119.894 56.5962 120.066 55.7965 120.409 55.0938C120.757 54.3854 121.244 53.8348 121.87 53.4419C122.495 53.049 123.192 52.8525 123.961 52.8525C125.184 52.8525 126.128 53.2427 126.792 54.0229C127.462 54.8032 127.796 55.9072 127.796 57.335V58.1484H121.928C121.989 58.89 122.235 59.4766 122.667 59.9082C123.104 60.3398 123.652 60.5557 124.31 60.5557C125.234 60.5557 125.987 60.1821 126.568 59.4351L127.655 60.4727C127.296 61.0094 126.814 61.4272 126.211 61.7261C125.613 62.0194 124.941 62.166 124.194 62.166ZM123.953 54.4712C123.4 54.4712 122.951 54.6649 122.608 55.0522C122.271 55.4396 122.055 55.9792 121.961 56.6709H125.804V56.5215C125.76 55.8464 125.58 55.3372 125.265 54.9941C124.949 54.6455 124.512 54.4712 123.953 54.4712Z" fill="white"/>
<defs>
<filter id="filter0_d" x="0" y="0" width="157" height="119" filterUnits="userSpaceOnUse" color-interpolation-filters="sRGB">
<feFlood flood-opacity="0" result="BackgroundImageFix"/>
<feColorMatrix in="SourceAlpha" type="matrix" values="0 0 0 0 0 0 0 0 0 0 0 0 0 0 0 0 0 0 127 0"/>
<feOffset dy="4"/>
<feGaussianBlur stdDeviation="2"/>
<feColorMatrix type="matrix" values="0 0 0 0 0 0 0 0 0 0 0 0 0 0 0 0 0 0 0.2 0"/>
<feBlend mode="normal" in2="BackgroundImageFix" result="effect1_dropShadow"/>
<feBlend mode="normal" in="SourceGraphic" in2="effect1_dropShadow" result="shape"/>
</filter>
</defs>
</svg>
