<svg width="44" height="44" viewBox="0 0 44 44" fill="none" xmlns="http://www.w3.org/2000/svg">
<path d="M29.6541 5.3916C26.527 5.3916 23.5256 6.84736 21.5666 9.14782C19.6076 6.84736 16.6062 5.3916 13.479 5.3916C7.94355 5.3916 3.59424 9.74091 3.59424 15.2764C3.59424 22.0699 9.70484 27.6054 18.9606 36.0165L21.5666 38.3708L24.1726 35.9985C33.4283 27.6054 39.5389 22.0699 39.5389 15.2764C39.5389 9.74091 35.1896 5.3916 29.6541 5.3916ZM21.7463 33.3386L21.5666 33.5183L21.3869 33.3386C12.832 25.5925 7.18871 20.4704 7.18871 15.2764C7.18871 11.6819 9.88456 8.98607 13.479 8.98607C16.2468 8.98607 18.9426 10.7653 19.8952 13.2275H23.256C24.1905 10.7653 26.8864 8.98607 29.6541 8.98607C33.2486 8.98607 35.9445 11.6819 35.9445 15.2764C35.9445 20.4704 30.3011 25.5925 21.7463 33.3386Z" fill="black"/>
</svg>
