<svg width="105" height="29" viewBox="0 0 105 29" fill="none" xmlns="http://www.w3.org/2000/svg">
<path d="M5.64 19.1C5.14667 19.1 4.79333 18.9933 4.58 18.78C4.36667 18.5533 4.26 18.1333 4.26 17.52C4.26 17.1067 4.3 16.58 4.38 15.94C4.47333 15.2867 4.62 14.3933 4.82 13.26C5.16667 11.1667 5.44 9.35333 5.64 7.82C5.76 6.86 5.82 6.06 5.82 5.42C5.82 4.82 5.6 4.52 5.16 4.52C4.81333 4.52 4.39333 4.7 3.9 5.06C3.42 5.40667 2.88667 5.96667 2.3 6.74C2.11333 6.99333 1.90667 7.12 1.68 7.12C1.49333 7.12 1.32667 7.03333 1.18 6.86C1.04667 6.67333 0.98 6.46667 0.98 6.24C0.98 6.02667 1.02 5.81333 1.1 5.6C1.19333 5.37333 1.34 5.12 1.54 4.84C2.18 3.94667 2.89333 3.26 3.68 2.78C4.46667 2.28667 5.25333 2.04 6.04 2.04C6.77333 2.04 7.33333 2.27333 7.72 2.74C8.12 3.20667 8.32 3.88667 8.32 4.78C8.32 5.14 8.28667 5.56667 8.22 6.06C8.15333 6.54 8.09333 6.93333 8.04 7.24C7.98667 7.54667 7.94667 7.76 7.92 7.88C8.68 5.70667 9.53333 4.19333 10.48 3.34C11.4267 2.47333 12.4667 2.04 13.6 2.04C14.4667 2.04 15.1467 2.34667 15.64 2.96C16.1467 3.57333 16.4 4.44 16.4 5.56C16.4 6 16.34 6.54667 16.22 7.2C16.8867 5.36 17.6667 4.04 18.56 3.24C19.4533 2.44 20.48 2.04 21.64 2.04C22.5733 2.04 23.2867 2.34 23.78 2.94C24.2867 3.54 24.54 4.38 24.54 5.46C24.54 6.04667 24.4533 6.76 24.28 7.6L23.06 13.32C22.9267 13.9867 22.86 14.56 22.86 15.04C22.86 15.6 22.9867 16.02 23.24 16.3C23.5067 16.58 23.8733 16.72 24.34 16.72C24.78 16.72 25.2067 16.5733 25.62 16.28C26.0467 15.9867 26.5467 15.5 27.12 14.82C27.28 14.6333 27.46 14.54 27.66 14.54C27.8333 14.54 27.9667 14.62 28.06 14.78C28.1667 14.94 28.22 15.16 28.22 15.44C28.22 15.96 28.0933 16.3733 27.84 16.68C27.1467 17.52 26.46 18.1333 25.78 18.52C25.1 18.9067 24.3867 19.1 23.64 19.1C22.5067 19.1 21.62 18.7667 20.98 18.1C20.34 17.42 20.02 16.5133 20.02 15.38C20.02 14.5933 20.18 13.4533 20.5 11.96L21.3 8.3C21.3267 8.18 21.3733 7.96667 21.44 7.66C21.5067 7.35333 21.56 7.06667 21.6 6.8C21.64 6.52 21.66 6.24667 21.66 5.98C21.66 5.51333 21.5667 5.16667 21.38 4.94C21.2067 4.7 20.9533 4.58 20.62 4.58C19.9933 4.58 19.3333 4.98667 18.64 5.8C17.96 6.6 17.3067 7.93333 16.68 9.8C16.0667 11.6667 15.5667 14.0933 15.18 17.08C15.0867 17.88 14.92 18.42 14.68 18.7C14.4533 18.9667 14.08 19.1 13.56 19.1C13.1067 19.1 12.7733 18.9933 12.56 18.78C12.36 18.5667 12.26 18.1667 12.26 17.58C12.26 17.0333 12.3333 16.32 12.48 15.44C12.6267 14.5467 12.8133 13.5 13.04 12.3C13.6533 9.07333 13.96 6.99333 13.96 6.06C13.96 5.55333 13.86 5.18 13.66 4.94C13.4733 4.7 13.1867 4.58 12.8 4.58C12.1467 4.58 11.4733 4.95333 10.78 5.7C10.0867 6.43333 9.40667 7.74667 8.74 9.64C8.08667 11.52 7.54 14.0667 7.1 17.28C7.00667 17.96 6.86667 18.4333 6.68 18.7C6.50667 18.9667 6.16 19.1 5.64 19.1ZM43.8084 14.52C43.8884 14.4933 44.0084 14.48 44.1684 14.48C44.6218 14.48 44.8484 14.7733 44.8484 15.36C44.8484 15.68 44.7751 15.9533 44.6284 16.18C44.4951 16.3933 44.2818 16.5267 43.9884 16.58C42.7751 16.8067 41.5818 17.06 40.4084 17.34L40.3484 17.82C39.9751 20.4467 39.2284 22.3867 38.1084 23.64C37.0018 24.9067 35.6151 25.54 33.9484 25.54C32.8418 25.54 31.9818 25.2667 31.3684 24.72C30.7684 24.1867 30.4684 23.5 30.4684 22.66C30.4684 21.26 31.0951 20.0133 32.3484 18.92C33.6018 17.8267 35.5018 16.86 38.0484 16.02L38.4484 13.2C38.5018 12.88 38.5684 12.4533 38.6484 11.92C38.0218 13.5733 37.2218 14.8067 36.2484 15.62C35.2751 16.4333 34.1884 16.84 32.9884 16.84C31.8418 16.84 30.9684 16.4933 30.3684 15.8C29.7684 15.0933 29.4684 14.1867 29.4684 13.08C29.4684 12.5867 29.5218 12.0467 29.6284 11.46C29.7351 10.86 29.9018 10.0533 30.1284 9.04C30.3284 8.12 30.4751 7.38667 30.5684 6.84C30.6751 6.29333 30.7284 5.80667 30.7284 5.38C30.7284 4.74 30.4818 4.42 29.9884 4.42C29.6018 4.42 29.1418 4.61333 28.6084 5C28.0884 5.37333 27.5351 5.95333 26.9484 6.74C26.7618 6.99333 26.5551 7.12 26.3284 7.12C26.1418 7.12 25.9751 7.03333 25.8284 6.86C25.6951 6.67333 25.6284 6.46667 25.6284 6.24C25.6284 5.82667 25.8151 5.36 26.1884 4.84C27.5484 2.97333 29.1418 2.04 30.9684 2.04C31.7818 2.04 32.4151 2.28667 32.8684 2.78C33.3351 3.27333 33.5684 4 33.5684 4.96C33.5684 5.65333 33.5018 6.36667 33.3684 7.1C33.2484 7.82 33.0618 8.74 32.8084 9.86C32.6484 10.5267 32.5284 11.0667 32.4484 11.48C32.3684 11.88 32.3284 12.2133 32.3284 12.48C32.3284 13.16 32.4484 13.6467 32.6884 13.94C32.9284 14.2333 33.3484 14.38 33.9484 14.38C34.6684 14.38 35.4018 13.9867 36.1484 13.2C36.9084 12.4 37.5884 11.1933 38.1884 9.58C38.8018 7.96667 39.2418 5.99333 39.5084 3.66C39.5751 3.07333 39.7284 2.66 39.9684 2.42C40.2084 2.16667 40.5551 2.04 41.0084 2.04C41.9418 2.04 42.4084 2.50667 42.4084 3.44C42.4084 3.6 42.4018 3.72667 42.3884 3.82C42.1084 5.80667 41.8484 7.6 41.6084 9.2C41.4751 10.16 41.3284 11.1467 41.1684 12.16C41.0218 13.1733 40.8751 14.2 40.7284 15.24C41.7018 14.9733 42.7284 14.7333 43.8084 14.52ZM37.7484 18.12C34.5218 19.24 32.9084 20.6 32.9084 22.2C32.9084 22.5733 33.0218 22.88 33.2484 23.12C33.4884 23.3733 33.8218 23.5 34.2484 23.5C36.1018 23.5 37.2618 21.7533 37.7284 18.26L37.7484 18.12ZM59.5931 14.54C59.7665 14.54 59.8998 14.62 59.9931 14.78C60.0998 14.94 60.1531 15.16 60.1531 15.44C60.1531 15.9733 60.0265 16.3867 59.7731 16.68C59.1998 17.3867 58.5798 17.9667 57.9131 18.42C57.2598 18.8733 56.5131 19.1 55.6731 19.1C54.9665 19.1 54.3931 18.8467 53.9531 18.34C53.1931 18.8333 52.3998 19.0867 51.5731 19.1C51.3998 21.6733 51.0065 23.82 50.3931 25.54C49.7798 27.2733 48.8798 28.14 47.6931 28.14C46.9731 28.14 46.4398 27.88 46.0931 27.36C45.7465 26.84 45.5731 26.12 45.5731 25.2C45.5731 23.8933 45.8731 22.3667 46.4731 20.62C47.0731 18.8867 47.9998 16.9733 49.2531 14.88C49.2531 12.9333 49.2398 11.58 49.2131 10.82C49.1998 10.4333 49.3531 10.1267 49.6731 9.9C49.9931 9.67333 50.3931 9.56 50.8731 9.56C51.1531 9.56 51.3531 9.62 51.4731 9.74C51.6065 9.84667 51.6798 10.0667 51.6931 10.4C51.6931 10.7333 51.6998 10.98 51.7131 11.14C52.1398 10.6067 52.5598 10.2267 52.9731 10C53.3865 9.76 53.8265 9.64 54.2931 9.64C55.0398 9.64 55.6465 9.94 56.1131 10.54C56.5931 11.14 56.8331 11.9267 56.8331 12.9C56.8331 13.6067 56.7198 14.2933 56.4931 14.96C56.2665 15.6267 55.9531 16.2333 55.5531 16.78C55.8331 16.86 56.0665 16.9 56.2531 16.9C56.6931 16.9 57.1131 16.74 57.5131 16.42C57.9131 16.1 58.4265 15.5667 59.0531 14.82C59.2131 14.6333 59.3931 14.54 59.5931 14.54ZM51.6731 17.18C52.1531 17.0733 52.5931 16.8133 52.9931 16.4C53.4065 15.9733 53.7331 15.4533 53.9731 14.84C54.2131 14.2133 54.3331 13.56 54.3331 12.88C54.3331 12.48 54.2531 12.18 54.0931 11.98C53.9331 11.7667 53.7198 11.66 53.4531 11.66C52.9731 11.66 52.3931 12.1667 51.7131 13.18C51.6998 13.7667 51.6931 14.6267 51.6931 15.76C51.6931 16.3733 51.6865 16.8467 51.6731 17.18ZM47.8531 26.18C48.2131 26.18 48.5131 25.3933 48.7531 23.82C48.9931 22.26 49.1465 20.3133 49.2131 17.98C48.6398 19.3133 48.1865 20.5867 47.8531 21.8C47.5198 23.0133 47.3531 24.0333 47.3531 24.86C47.3531 25.2867 47.4065 25.6133 47.5131 25.84C47.6065 26.0667 47.7198 26.18 47.8531 26.18ZM61.002 19.1C60.1754 19.1 59.5154 18.8 59.022 18.2C58.5287 17.6 58.282 16.8133 58.282 15.84C58.282 14.7733 58.5287 13.7667 59.022 12.82C59.5154 11.86 60.1687 11.0933 60.982 10.52C61.8087 9.93333 62.682 9.64 63.602 9.64C63.8954 9.64 64.0887 9.7 64.182 9.82C64.2887 9.92667 64.3754 10.1267 64.442 10.42C64.722 10.3667 65.0154 10.34 65.322 10.34C65.9754 10.34 66.302 10.5733 66.302 11.04C66.302 11.32 66.202 11.9867 66.002 13.04C65.6954 14.5733 65.542 15.64 65.542 16.24C65.542 16.44 65.5887 16.6 65.682 16.72C65.7887 16.84 65.922 16.9 66.082 16.9C66.3354 16.9 66.642 16.74 67.002 16.42C67.362 16.0867 67.8487 15.5533 68.462 14.82C68.622 14.6333 68.802 14.54 69.002 14.54C69.1754 14.54 69.3087 14.62 69.402 14.78C69.5087 14.94 69.562 15.16 69.562 15.44C69.562 15.9733 69.4354 16.3867 69.182 16.68C68.6354 17.36 68.0554 17.9333 67.442 18.4C66.8287 18.8667 66.2354 19.1 65.662 19.1C65.222 19.1 64.8154 18.9533 64.442 18.66C64.082 18.3533 63.8087 17.94 63.622 17.42C62.9287 18.54 62.0554 19.1 61.002 19.1ZM61.722 17.08C62.0154 17.08 62.2954 16.9067 62.562 16.56C62.8287 16.2133 63.022 15.7533 63.142 15.18L63.882 11.5C63.322 11.5133 62.802 11.7267 62.322 12.14C61.8554 12.54 61.482 13.0733 61.202 13.74C60.922 14.4067 60.782 15.1133 60.782 15.86C60.782 16.2733 60.862 16.58 61.022 16.78C61.1954 16.98 61.4287 17.08 61.722 17.08ZM75.5166 14.54C75.6899 14.54 75.8232 14.62 75.9166 14.78C76.0232 14.94 76.0766 15.16 76.0766 15.44C76.0766 15.9733 75.9499 16.3867 75.6966 16.68C75.1232 17.3867 74.4966 17.9667 73.8166 18.42C73.1499 18.8733 72.3899 19.1 71.5366 19.1C70.3632 19.1 69.4899 18.5667 68.9166 17.5C68.3566 16.4333 68.0766 15.0533 68.0766 13.36C68.0766 11.7333 68.2832 9.88 68.6966 7.8C69.1232 5.72 69.7432 3.93333 70.5566 2.44C71.3832 0.946665 72.3632 0.199999 73.4966 0.199999C74.1366 0.199999 74.6366 0.499999 74.9966 1.1C75.3699 1.68667 75.5566 2.53333 75.5566 3.64C75.5566 5.22667 75.1166 7.06667 74.2366 9.16C73.3566 11.2533 72.1632 13.3267 70.6566 15.38C70.7499 15.9267 70.9032 16.32 71.1166 16.56C71.3299 16.7867 71.6099 16.9 71.9566 16.9C72.5032 16.9 72.9832 16.7467 73.3966 16.44C73.8099 16.12 74.3366 15.58 74.9766 14.82C75.1366 14.6333 75.3166 14.54 75.5166 14.54ZM73.0566 2.18C72.7499 2.18 72.4032 2.73333 72.0166 3.84C71.6299 4.94667 71.2899 6.32 70.9966 7.96C70.7032 9.6 70.5432 11.1733 70.5166 12.68C71.4632 11.12 72.2166 9.56 72.7766 8C73.3366 6.42667 73.6166 4.99333 73.6166 3.7C73.6166 2.68667 73.4299 2.18 73.0566 2.18ZM83.38 14.54C83.5533 14.54 83.6867 14.62 83.78 14.78C83.8867 14.94 83.94 15.16 83.94 15.44C83.94 15.9733 83.8133 16.3867 83.56 16.68C83.0667 17.28 82.3667 17.8333 81.46 18.34C80.5667 18.8467 79.6067 19.1 78.58 19.1C77.18 19.1 76.0933 18.72 75.32 17.96C74.5467 17.2 74.16 16.16 74.16 14.84C74.16 13.92 74.3533 13.0667 74.74 12.28C75.1267 11.48 75.66 10.8467 76.34 10.38C77.0333 9.91333 77.8133 9.68 78.68 9.68C79.4533 9.68 80.0733 9.91333 80.54 10.38C81.0067 10.8333 81.24 11.4533 81.24 12.24C81.24 13.16 80.9067 13.9533 80.24 14.62C79.5867 15.2733 78.4733 15.7933 76.9 16.18C77.2333 16.7933 77.8667 17.1 78.8 17.1C79.4 17.1 80.08 16.8933 80.84 16.48C81.6133 16.0533 82.28 15.5 82.84 14.82C83 14.6333 83.18 14.54 83.38 14.54ZM78.34 11.64C77.8467 11.64 77.4267 11.9267 77.08 12.5C76.7467 13.0733 76.58 13.7667 76.58 14.58V14.62C77.3667 14.4333 77.9867 14.1533 78.44 13.78C78.8933 13.4067 79.12 12.9733 79.12 12.48C79.12 12.2267 79.0467 12.0267 78.9 11.88C78.7667 11.72 78.58 11.64 78.34 11.64ZM97.4916 14.54C97.6649 14.54 97.7982 14.62 97.8916 14.78C97.9982 14.94 98.0516 15.16 98.0516 15.44C98.0516 15.9733 97.9249 16.3867 97.6716 16.68C97.0982 17.3867 96.4716 17.9667 95.7916 18.42C95.1116 18.8733 94.3316 19.1 93.4516 19.1C91.8249 19.1 90.6916 18.42 90.0516 17.06C89.7049 17.62 89.2449 18.1 88.6716 18.5C88.0982 18.9 87.4849 19.1 86.8316 19.1C85.5649 19.1 84.6316 18.5867 84.0316 17.56C83.4449 16.52 83.1516 15.12 83.1516 13.36C83.1516 12.7067 83.1849 11.98 83.2516 11.18H82.4316C82.0316 11.18 81.7582 11.1067 81.6116 10.96C81.4782 10.8133 81.4116 10.58 81.4116 10.26C81.4116 9.51333 81.7116 9.14 82.3116 9.14H83.5316C83.7849 7.72667 84.1382 6.44667 84.5916 5.3C85.0449 4.15333 85.5916 3.24 86.2316 2.56C86.8716 1.88 87.5649 1.54 88.3116 1.54C88.8716 1.54 89.3116 1.78667 89.6316 2.28C89.9516 2.77333 90.1116 3.39333 90.1116 4.14C90.1116 6.02 89.3849 7.68667 87.9316 9.14H89.7516C90.0049 7.72667 90.3582 6.44667 90.8116 5.3C91.2649 4.15333 91.8116 3.24 92.4516 2.56C93.0916 1.88 93.7849 1.54 94.5316 1.54C95.0916 1.54 95.5316 1.78667 95.8516 2.28C96.1716 2.77333 96.3316 3.39333 96.3316 4.14C96.3316 6.02 95.6049 7.68667 94.1516 9.14H95.9716C96.1849 9.14 96.3382 9.18667 96.4316 9.28C96.5249 9.37333 96.5716 9.54667 96.5716 9.8C96.5716 10.72 95.8182 11.18 94.3116 11.18H91.8916C91.8516 11.82 91.8316 12.4733 91.8316 13.14C91.8316 14.5267 91.9916 15.5 92.3116 16.06C92.6449 16.62 93.1649 16.9 93.8716 16.9C94.4449 16.9 94.9516 16.7267 95.3916 16.38C95.8316 16.0333 96.3516 15.5133 96.9516 14.82C97.1116 14.6333 97.2916 14.54 97.4916 14.54ZM87.7716 3.46C87.5716 3.46 87.3449 3.71333 87.0916 4.22C86.8516 4.71333 86.6182 5.40667 86.3916 6.3C86.1782 7.18 85.9982 8.16 85.8516 9.24C86.6382 8.56 87.2249 7.8 87.6116 6.96C88.0116 6.10667 88.2116 5.33333 88.2116 4.64C88.2116 3.85333 88.0649 3.46 87.7716 3.46ZM93.9916 3.46C93.7916 3.46 93.5649 3.71333 93.3116 4.22C93.0716 4.71333 92.8382 5.40667 92.6116 6.3C92.3982 7.18 92.2182 8.16 92.0716 9.24C92.8582 8.56 93.4449 7.8 93.8316 6.96C94.2316 6.10667 94.4316 5.33333 94.4316 4.64C94.4316 3.85333 94.2849 3.46 93.9916 3.46ZM87.2516 16.9C87.6516 16.9 88.0516 16.7133 88.4516 16.34C88.8516 15.9667 89.1916 15.5067 89.4716 14.96C89.4049 14.5467 89.3716 14.0133 89.3716 13.36C89.3716 12.7067 89.4049 11.98 89.4716 11.18H85.6716C85.6316 11.82 85.6116 12.4733 85.6116 13.14C85.6116 14.4867 85.7516 15.4533 86.0316 16.04C86.3249 16.6133 86.7316 16.9 87.2516 16.9ZM103.593 15.14C103.766 15.14 103.899 15.22 103.993 15.38C104.099 15.54 104.153 15.76 104.153 16.04C104.153 16.52 104.039 16.9333 103.813 17.28C103.439 17.8533 102.946 18.3 102.333 18.62C101.733 18.94 101.013 19.1 100.173 19.1C98.8927 19.1 97.8993 18.72 97.1927 17.96C96.486 17.1867 96.1327 16.1467 96.1327 14.84C96.1327 13.92 96.326 13.0667 96.7127 12.28C97.0993 11.48 97.6327 10.8467 98.3127 10.38C99.006 9.91333 99.786 9.68 100.653 9.68C101.426 9.68 102.046 9.91333 102.513 10.38C102.979 10.8333 103.213 11.4533 103.213 12.24C103.213 13.16 102.879 13.9533 102.213 14.62C101.559 15.2733 100.439 15.7933 98.8527 16.18C99.1727 16.7933 99.7127 17.1 100.473 17.1C101.019 17.1 101.466 16.9733 101.813 16.72C102.173 16.4667 102.586 16.04 103.053 15.44C103.213 15.24 103.393 15.14 103.593 15.14ZM100.313 11.64C99.8193 11.64 99.3993 11.9267 99.0527 12.5C98.7193 13.0733 98.5527 13.7667 98.5527 14.58V14.62C99.3393 14.4333 99.9593 14.1533 100.413 13.78C100.866 13.4067 101.093 12.9733 101.093 12.48C101.093 12.2267 101.019 12.0267 100.873 11.88C100.739 11.72 100.553 11.64 100.313 11.64Z" fill="#3C48CF"/>
</svg>
