<svg width="157" height="119" viewBox="0 0 157 119" fill="none" xmlns="http://www.w3.org/2000/svg">
<g filter="url(#filter0_d)">
<rect x="4" width="149" height="111" rx="10" fill="#C4C4C4"/>
</g>
<path d="M4 10C4 4.47715 8.47715 0 14 0H41.75V111H14C8.47715 111 4 106.523 4 101V10Z" fill="#B08957"/>
<rect x="41" width="37.75" height="111" fill="#EE9039"/>
<rect x="78" width="37.75" height="111" fill="#E7282E"/>
<path d="M115 0H142.75C148.273 0 152.75 4.47715 152.75 10V101C152.75 106.523 148.273 111 142.75 111H115V0Z" fill="#D9213A"/>
<path d="M42.708 59.0117L44.5674 49.9141H46.6509L43.8618 62H41.853L39.5537 53.1763L37.2046 62H35.1875L32.3984 49.9141H34.4819L36.3579 58.9951L38.6655 49.9141H40.4253L42.708 59.0117ZM53.0757 62C52.9871 61.8285 52.9097 61.549 52.8433 61.1616C52.2013 61.8312 51.4155 62.166 50.4858 62.166C49.5838 62.166 48.8478 61.9087 48.2778 61.394C47.7078 60.8794 47.4229 60.243 47.4229 59.4849C47.4229 58.5275 47.777 57.7943 48.4854 57.2852C49.1992 56.7705 50.2174 56.5132 51.54 56.5132H52.7769V55.9238C52.7769 55.459 52.6468 55.0882 52.3867 54.8115C52.1266 54.5293 51.731 54.3882 51.1997 54.3882C50.7404 54.3882 50.3641 54.5044 50.0708 54.7368C49.7775 54.9637 49.6309 55.2542 49.6309 55.6084H47.6138C47.6138 55.1159 47.777 54.6566 48.1035 54.2305C48.43 53.7988 48.8727 53.4613 49.4316 53.2178C49.9961 52.9743 50.6242 52.8525 51.3159 52.8525C52.3674 52.8525 53.2057 53.1182 53.8311 53.6494C54.4564 54.1751 54.7773 54.9167 54.7939 55.874V59.9248C54.7939 60.7327 54.9074 61.3774 55.1343 61.8589V62H53.0757ZM50.8594 60.5474C51.2578 60.5474 51.6313 60.4505 51.98 60.2568C52.3341 60.0632 52.5998 59.8031 52.7769 59.4766V57.7832H51.6895C50.9424 57.7832 50.3807 57.9132 50.0044 58.1733C49.6281 58.4334 49.4399 58.8014 49.4399 59.2773C49.4399 59.6647 49.5672 59.9746 49.8218 60.207C50.0819 60.4339 50.4277 60.5474 50.8594 60.5474ZM61.6089 54.8613C61.3433 54.8171 61.0693 54.7949 60.7871 54.7949C59.863 54.7949 59.2404 55.1491 58.9194 55.8574V62H56.9023V53.0186H58.8281L58.8779 54.0229C59.3649 53.2427 60.04 52.8525 60.9033 52.8525C61.1911 52.8525 61.429 52.8913 61.6172 52.9688L61.6089 54.8613ZM64.7798 53.0186L64.8379 53.9565C65.4688 53.2205 66.332 52.8525 67.4277 52.8525C68.6286 52.8525 69.4504 53.3118 69.8931 54.2305C70.5461 53.3118 71.4647 52.8525 72.6489 52.8525C73.6395 52.8525 74.3755 53.1265 74.8569 53.6743C75.3439 54.2222 75.5929 55.0301 75.604 56.0981V62H73.5869V56.1562C73.5869 55.5863 73.4624 55.1685 73.2134 54.9028C72.9644 54.6372 72.5521 54.5044 71.9766 54.5044C71.5173 54.5044 71.141 54.6289 70.8477 54.8779C70.5599 55.1214 70.3579 55.4424 70.2417 55.8408L70.25 62H68.2329V56.0898C68.2052 55.0329 67.6657 54.5044 66.6143 54.5044C65.8063 54.5044 65.2336 54.8337 64.896 55.4922V62H62.8789V53.0186H64.7798ZM84.436 50.8354V53.0186H86.0215V54.5127H84.436V59.5264C84.436 59.8695 84.5024 60.1185 84.6353 60.2734C84.7736 60.4229 85.0171 60.4976 85.3657 60.4976C85.5981 60.4976 85.8333 60.4699 86.0713 60.4146V61.9751C85.612 62.1024 85.1693 62.166 84.7432 62.166C83.1937 62.166 82.4189 61.311 82.4189 59.6011V54.5127H80.9414V53.0186H82.4189V50.8354H84.436ZM86.9429 57.4263C86.9429 56.5464 87.1172 55.755 87.4658 55.0522C87.8145 54.3439 88.3042 53.8016 88.9351 53.4253C89.5659 53.0435 90.2909 52.8525 91.1099 52.8525C92.3218 52.8525 93.304 53.2427 94.0566 54.0229C94.8148 54.8032 95.2243 55.8381 95.2852 57.1274L95.2935 57.6006C95.2935 58.486 95.1219 59.2773 94.7788 59.9746C94.4412 60.6719 93.9543 61.2114 93.3179 61.5933C92.687 61.9751 91.9565 62.166 91.1265 62.166C89.8592 62.166 88.8438 61.7454 88.0801 60.9043C87.3219 60.0576 86.9429 58.9315 86.9429 57.5259V57.4263ZM88.96 57.6006C88.96 58.5247 89.1509 59.2497 89.5327 59.7754C89.9146 60.2956 90.4458 60.5557 91.1265 60.5557C91.8071 60.5557 92.3356 60.29 92.7119 59.7588C93.0938 59.2275 93.2847 58.45 93.2847 57.4263C93.2847 56.5187 93.0882 55.7993 92.6953 55.2681C92.3079 54.7368 91.7795 54.4712 91.1099 54.4712C90.4513 54.4712 89.9284 54.734 89.541 55.2598C89.1536 55.7799 88.96 56.5602 88.96 57.6006ZM98.8711 53.0186L98.9292 54.0562C99.5933 53.2537 100.465 52.8525 101.544 52.8525C103.414 52.8525 104.366 53.9233 104.399 56.0649V62H102.382V56.1812C102.382 55.6112 102.258 55.1906 102.009 54.9194C101.765 54.6427 101.364 54.5044 100.805 54.5044C99.9917 54.5044 99.3857 54.8724 98.9873 55.6084V62H96.9702V53.0186H98.8711ZM110.417 62.166C109.139 62.166 108.102 61.7648 107.305 60.9624C106.513 60.1545 106.118 59.0809 106.118 57.7417V57.4927C106.118 56.5962 106.289 55.7965 106.632 55.0938C106.981 54.3854 107.468 53.8348 108.093 53.4419C108.719 53.049 109.416 52.8525 110.185 52.8525C111.408 52.8525 112.352 53.2427 113.016 54.0229C113.685 54.8032 114.02 55.9072 114.02 57.335V58.1484H108.151C108.212 58.89 108.458 59.4766 108.89 59.9082C109.327 60.3398 109.875 60.5557 110.534 60.5557C111.458 60.5557 112.21 60.1821 112.792 59.4351L113.879 60.4727C113.519 61.0094 113.038 61.4272 112.435 61.7261C111.837 62.0194 111.165 62.166 110.417 62.166ZM110.177 54.4712C109.623 54.4712 109.175 54.6649 108.832 55.0522C108.494 55.4396 108.279 55.9792 108.185 56.6709H112.028V56.5215C111.984 55.8464 111.804 55.3372 111.488 54.9941C111.173 54.6455 110.736 54.4712 110.177 54.4712ZM120.627 59.5596C120.627 59.1999 120.478 58.9259 120.179 58.7378C119.886 58.5496 119.396 58.3836 118.71 58.2397C118.024 58.0959 117.451 57.9132 116.992 57.6919C115.985 57.2049 115.481 56.4993 115.481 55.5752C115.481 54.8005 115.807 54.153 116.46 53.6328C117.113 53.1126 117.944 52.8525 118.951 52.8525C120.024 52.8525 120.89 53.1182 121.549 53.6494C122.213 54.1807 122.545 54.8696 122.545 55.7163H120.528C120.528 55.3289 120.384 55.008 120.096 54.7534C119.808 54.4933 119.427 54.3633 118.951 54.3633C118.508 54.3633 118.146 54.4657 117.863 54.6704C117.587 54.8752 117.448 55.1491 117.448 55.4922C117.448 55.8021 117.578 56.0428 117.838 56.2144C118.098 56.3859 118.624 56.5602 119.416 56.7373C120.207 56.9089 120.827 57.1164 121.275 57.3599C121.729 57.5978 122.063 57.8856 122.279 58.2231C122.501 58.5607 122.611 58.9702 122.611 59.4517C122.611 60.2596 122.277 60.9154 121.607 61.4189C120.937 61.917 120.06 62.166 118.976 62.166C118.24 62.166 117.584 62.0332 117.008 61.7676C116.433 61.502 115.985 61.1367 115.664 60.6719C115.343 60.207 115.182 59.7062 115.182 59.1694H117.141C117.169 59.6453 117.349 60.0133 117.681 60.2734C118.013 60.528 118.453 60.6553 119 60.6553C119.532 60.6553 119.936 60.5557 120.212 60.3564C120.489 60.1517 120.627 59.8861 120.627 59.5596Z" fill="white"/>
<defs>
<filter id="filter0_d" x="0" y="0" width="157" height="119" filterUnits="userSpaceOnUse" color-interpolation-filters="sRGB">
<feFlood flood-opacity="0" result="BackgroundImageFix"/>
<feColorMatrix in="SourceAlpha" type="matrix" values="0 0 0 0 0 0 0 0 0 0 0 0 0 0 0 0 0 0 127 0"/>
<feOffset dy="4"/>
<feGaussianBlur stdDeviation="2"/>
<feColorMatrix type="matrix" values="0 0 0 0 0 0 0 0 0 0 0 0 0 0 0 0 0 0 0.2 0"/>
<feBlend mode="normal" in2="BackgroundImageFix" result="effect1_dropShadow"/>
<feBlend mode="normal" in="SourceGraphic" in2="effect1_dropShadow" result="shape"/>
</filter>
</defs>
</svg>
